<svg xmlns="http://www.w3.org/2000/svg" width="202" height="202" viewBox="0 0 202 202"><g transform="translate(-541 -1754)"><rect width="202" height="202" transform="translate(541 1754)" fill="#f0f6ff"/><g transform="translate(-56.356 1732.183)"><path d="M730.159,111.2a5.513,5.513,0,1,1,5.509-5.512A5.521,5.521,0,0,1,730.159,111.2Z" transform="translate(-7.336 0)" fill="#ff8c26"/><path d="M694.225,131.678c1.949,0,3.4-.766,3.4-2.486,0-1.833-1.537-2.522-3.4-2.522h-5.444v5.007Zm-.262-8.725c1.639,0,2.859-.686,2.859-2.249,0-1.389-1-2.256-2.859-2.256h-5.182v4.505Zm10.535,6.771c0,3.783-2.813,6.072-8.089,6.072h-14.07V120.36c0-3.41,1.962-6.026,6.235-6.026h7.241c5.009,0,7.41,2.016,7.41,5.455a4.715,4.715,0,0,1-3.455,4.513v.145C701.186,124.628,704.5,126.124,704.5,129.724Zm-38.7-10.931-3.582,8.405h7.395l-3.581-8.405Zm4.754-4.459L680.776,135.8h-7.623l-1.924-4.6H660.6l-1.926,4.6h-7.114s5.093-10.562,6.84-14.423c2.049-4.537,3.8-7.039,8.053-7.039Zm68.5,21.461H733.08l-1.412-12.94h-.315L726.84,135.8h-8.021l-4.514-12.94h-.316l-1.408,12.94h-5.972s1.2-10.885,1.682-15.289c.453-4.091,2.594-6.172,6.369-6.172h2.707l5.346,15.1h.23l5.342-15.1h2.684c3.76,0,5.905,2.084,6.374,6.181C737.828,124.747,739.052,135.8,739.052,135.8Z" transform="translate(0 -1.421)" fill="#0057ac"/><path d="M686.778,152.336h1.414c1.118,0,1.336-.57,1.336-1.121,0-.788-.35-1.137-1.319-1.137h-1.431Zm1.356-5.219h-1.356v2.011h1.431c.872,0,1.092-.512,1.092-1.007S689.128,147.117,688.133,147.117Zm-2.362-.947H688.1c1.706,0,2.276.881,2.276,1.951a1.766,1.766,0,0,1-.694,1.414,1.792,1.792,0,0,1,.92,1.68c0,1.149-.624,2.069-2.447,2.069h-2.381" transform="translate(-3.434 -4.617)" fill="#0057ac"/><path d="M693.213,152.162c0,.447.332.609.768.609a2.547,2.547,0,0,0,1.1-.229V148.8h.978v4.744H695.4l-.1-.266a2.445,2.445,0,0,1-1.328.389c-1.166,0-1.744-.568-1.744-1.526V148.8h.976" transform="translate(-4.083 -4.881)" fill="#0057ac"/><path d="M699.039,153.42c-.751,0-1.149-.3-1.149-1.148v-3.718h.959V152.3c0,.173.1.22.369.22v.9Zm-.663-7.116a.664.664,0,1,1-.665.665A.662.662,0,0,1,698.376,146.3Z" transform="translate(-4.633 -4.63)" fill="#0057ac"/><path d="M701.79,153.406c-.748,0-1.148-.3-1.148-1.148v-6.091h.958v6.119c0,.173.1.22.372.22v.9" transform="translate(-4.927 -4.617)" fill="#0057ac"/><path d="M705.212,149.318c-.928,0-1.071.73-1.071,1.593s.143,1.6,1.071,1.6a2.339,2.339,0,0,0,1.071-.229v-2.742a1.758,1.758,0,0,0-.35-.123A2.852,2.852,0,0,0,705.212,149.318Zm2.03,3.966h-.635l-.1-.266a2.645,2.645,0,0,1-1.3.389c-1.6,0-2.06-1.006-2.06-2.5s.455-2.494,2.06-2.494a2.469,2.469,0,0,1,1.071.255v-2.5h.959" transform="translate(-5.179 -4.617)" fill="#0057ac"/><path d="M710.252,153.42c-.751,0-1.149-.3-1.149-1.148v-3.718h.956V152.3c0,.173.1.22.372.22v.9Zm-.665-7.116a.664.664,0,1,1-.665.665A.661.661,0,0,1,709.587,146.3Z" transform="translate(-5.758 -4.63)" fill="#0057ac"/><path d="M714.7,150.175c0-.444-.333-.606-.769-.606a2.547,2.547,0,0,0-1.1.228v3.738h-.978v-4.744h.659l.093.265a2.452,2.452,0,0,1,1.328-.389c1.169,0,1.747.568,1.747,1.527v3.34H714.7" transform="translate(-6.052 -4.868)" fill="#0057ac"/><path d="M719.182,151.466c.872,0,.978-.455.978-.947s-.106-.95-.978-.95-.968.455-.968.95S718.309,151.466,719.182,151.466Zm-.285,2.228c-.5.165-.9.4-.9.791,0,.514.4.643,1.186.643s1.5-.171,1.5-.777c0-.333-.143-.467-.551-.512Zm.285-1.325c-.112,0-.227,0-.333-.011-.112.076-.237.19-.237.284,0,.115.049.151.173.171l1.507.179c.883.1,1.367.475,1.367,1.358,0,1.194-1.157,1.68-2.476,1.68-1.346,0-2.153-.458-2.153-1.546a1.28,1.28,0,0,1,.8-1.149v-.011a.879.879,0,0,1-.17-.56.927.927,0,0,1,.332-.682,1.728,1.728,0,0,1-.7-1.565,1.665,1.665,0,0,1,1.9-1.851,2.818,2.818,0,0,1,.855.123h1.528v.643l-.645.182a2.352,2.352,0,0,1,.159.9A1.66,1.66,0,0,1,719.182,152.369Z" transform="translate(-6.572 -4.868)" fill="#0057ac"/><path d="M729.369,146.167h1.09l-2.524,7.239h-.693l-2.524-7.239h1.093l1.783,5.57" transform="translate(-7.344 -4.617)" fill="#0057ac"/><path d="M732.383,151.315c-.6.057-.766.389-.766.721s.076.721.766.721a2.276,2.276,0,0,0,1.082-.3V151.22Zm.21-1.746a5.313,5.313,0,0,0-1.621.285v-.9a5.083,5.083,0,0,1,1.621-.282c1.464,0,1.842.665,1.842,1.65v3.214h-.654l-.086-.244a2.714,2.714,0,0,1-1.328.369,1.513,1.513,0,0,1-1.727-1.621c0-.751.352-1.414,1.755-1.528l1.071-.086v-.093C733.466,149.814,733.276,149.569,732.593,149.569Z" transform="translate(-7.938 -4.868)" fill="#0057ac"/><path d="M737.43,153.406c-.748,0-1.148-.3-1.148-1.148v-6.091h.958v6.119c0,.173.093.22.372.22v.9" transform="translate(-8.504 -4.617)" fill="#0057ac"/><path d="M739.823,152.162c0,.447.333.609.768.609a2.534,2.534,0,0,0,1.1-.229V148.8h.978v4.744h-.654l-.1-.266a2.456,2.456,0,0,1-1.328.389c-1.168,0-1.746-.568-1.746-1.526V148.8h.978" transform="translate(-8.762 -4.881)" fill="#0057ac"/><path d="M745.295,150.773h2c-.008-.626-.105-1.2-.883-1.2C745.6,149.569,745.36,150.091,745.295,150.773Zm.009.844c.076.655.352,1.141,1.11,1.141a3.673,3.673,0,0,0,1.632-.344v.922a3.856,3.856,0,0,1-1.632.321c-1.6,0-2.116-.995-2.116-2.5s.511-2.494,2.116-2.494c1.66,0,1.889,1.166,1.889,2.494v.455" transform="translate(-9.309 -4.868)" fill="#0057ac"/><path d="M752.771,135.774h.365c.311,0,.648-.017.648-.39,0-.29-.264-.373-.506-.373h-.507Zm0,1.246h-.282v-2.263h.87c.512,0,.711.22.711.626a.609.609,0,0,1-.568.643l.673.993h-.321l-.676-.993h-.407Zm.428.552a1.677,1.677,0,1,0-1.676-1.677A1.674,1.674,0,0,0,753.2,137.572Zm0-3.64a1.963,1.963,0,1,1-1.961,1.963A1.965,1.965,0,0,1,753.2,133.932Z" transform="translate(-10.006 -3.388)" fill="#0057ac"/></g></g></svg>