<svg version="1.2" xmlns="http://www.w3.org/2000/svg" viewBox="0 0 1512 591" width="1512" height="591">
	<title>logo_blue-svg</title>
	<style>
		.s0 { fill: #f7901e } 
		.s1 { fill: #204ca1 } 
	</style>
	<path id="Layer" class="s0" d="m1231 190.9c-38.5 0-73.2-23.1-88-58.7-14.7-35.6-6.6-76.5 20.6-103.7 27.3-27.3 68.2-35.4 103.8-20.7 35.6 14.7 58.8 49.5 58.8 87.9 0 12.5-2.5 24.9-7.3 36.4-4.8 11.6-11.8 22-20.6 30.9-8.8 8.8-19.3 15.8-30.9 20.6-11.5 4.8-23.9 7.3-36.4 7.3z"/>
	<path id="Layer" fill-rule="evenodd" class="s1" d="m1511.3 590.9h-103l-24.4-223.4h-5.4l-78.1 223.4h-138.5l-78-223.4h-5.4l-24.3 223.4h-103c0 0 20.6-187.9 29-263.9 7.7-70.7 44.7-106.7 109.9-106.7h46.8l92.3 260.6h3.9l92.3-260.6h46.4c64.9 0 101.9 36 110 106.7 8.4 73.4 29.5 263.9 29.5 263.9zm-1183-370.6l176.6 370.6h-131.6l-33.2-79.4h-183.6l-33.3 79.4h-122.9c0 0 88.1-182.3 118.1-249 35.4-78.2 65.7-121.6 139.1-121.6zm-82.1 77.2l-61.8 145.1h127.7l-61.9-145.1zm668.4 188.7c0 65.3-48.6 104.8-139.7 104.8h-243v-266.6c0-58.8 33.9-104.1 107.6-104.1h125.1c86.6 0 128 34.8 128 94.2 0 39.5-25.1 65.3-59.7 77.8v3c24.5 2.8 81.7 28.6 81.7 90.8zm-181.9-117c28.3 0 49.3-11.8 49.3-38.8 0-24-17.3-39-49.3-39h-89.6v77.8zm4.7 150.6c33.7 0 58.7-13.2 58.7-42.9 0-31.7-26.5-43.5-58.7-43.5h-94.2v86.4z"/>
</svg>