<?xml version="1.0" encoding="UTF-8" standalone="no"?>

<svg
   xmlns:dc="http://purl.org/dc/elements/1.1/"
   xmlns:cc="http://creativecommons.org/ns#"
   xmlns:rdf="http://www.w3.org/1999/02/22-rdf-syntax-ns#"
   xmlns:svg="http://www.w3.org/2000/svg"
   xmlns="http://www.w3.org/2000/svg"
   xmlns:sodipodi="http://sodipodi.sourceforge.net/DTD/sodipodi-0.dtd"
   xmlns:inkscape="http://www.inkscape.org/namespaces/inkscape"
   width="301"
   height="91.905731"
   viewBox="0 0 301 91.905731"
   id="svg7131"
   version="1.1">
  <defs
     id="defs7133" />
  <sodipodi:namedview
     id="base"
     pagecolor="#ffffff"
     bordercolor="#666666"
     borderopacity="1.0"
     inkscape:pageopacity="0.0"
     inkscape:pageshadow="2"
     inkscape:zoom="3.0166667"
     inkscape:cx="150"
     inkscape:cy="45.452865"
     inkscape:document-units="px"
     inkscape:current-layer="layer1"
     showgrid="false"
     units="px"
     fit-margin-top="0"
     fit-margin-left="0"
     fit-margin-right="0"
     fit-margin-bottom="0"
     inkscape:window-width="1280"
     inkscape:window-height="744"
     inkscape:window-x="-4"
     inkscape:window-y="-4"
     inkscape:window-maximized="1" />
  <metadata
     id="metadata7136">
    <rdf:RDF>
      <cc:Work
         rdf:about="">
        <dc:format>image/svg+xml</dc:format>
        <dc:type
           rdf:resource="http://purl.org/dc/dcmitype/StillImage" />
        <dc:title></dc:title>
      </cc:Work>
    </rdf:RDF>
  </metadata>
  <g
     inkscape:label="Layer 1"
     inkscape:groupmode="layer"
     id="layer1"
     transform="translate(-312.93684,-555.14853)">
    <path
       d="m 460.55937,559.20993 -34.2409,57.49725 c -3.56998,5.91278 -5.5266,11.89421 -6.06725,17.65251 l -13.40458,0 c 0.90965,-7.27726 3.7931,-14.16835 9.62006,-24.09735 l 23.9343,-40.1451 c 4.78,-7.94663 9.55141,-10.83866 18.19316,-10.83866 l 1.96521,0 0,-0.0687 z"
       style="fill:#00385f;fill-opacity:1;fill-rule:nonzero;stroke:none"
       id="path6811"
       inkscape:connector-curvature="0" />
    <path
       d="m 470.55448,590.11853 c -17.34357,0 -28.02776,10.15212 -37.41612,32.27569 -2.35138,5.5266 -3.71586,12.41769 4.31659,12.34904 4.53971,-0.0769 12.19456,-2.58309 17.57528,-6.29895 -0.45518,1.81931 -0.68654,4.32516 -0.53207,5.83554 l 12.19457,0 c 0.45448,-4.77141 2.27414,-10.67561 6.28179,-17.87564 L 488.207,591.03677 c -5.75831,-0.60965 -11.6625,-0.91824 -17.65252,-0.91824 m -12.64939,29.39225 c -2.49727,2.35138 -7.34592,5.82696 -11.4308,5.90419 -2.81479,-0.14623 -2.96068,-2.79762 -1.07271,-6.43626 7.20861,-13.85941 14.85489,-21.20533 24.16601,-21.13667 l 1.67343,0 -13.33593,21.66874 z"
       style="fill:#00385f;fill-opacity:1;fill-rule:nonzero;stroke:none"
       id="path6815"
       inkscape:connector-curvature="0" />
    <path
       d="m 595.85298,590.11853 c -17.34358,0 -28.01918,10.15212 -37.41612,32.27569 -2.35138,5.5266 -3.71587,12.41769 4.31658,12.34904 4.54829,-0.0769 12.19457,-2.58309 17.57528,-6.29895 -0.45449,1.81931 -0.68653,4.32516 -0.53206,5.83554 l 12.20314,0 c 0.44625,-4.77141 2.26557,-10.67561 6.28179,-17.87564 l 15.15525,-25.36744 c -5.75831,-0.60965 -11.67108,-0.91824 -17.58386,-0.91824 m -12.6494,29.39225 c -2.49727,2.35138 -7.34591,5.82696 -11.43079,5.90419 -2.81479,-0.14623 -2.96068,-2.79762 -1.06413,-6.43626 7.20003,-13.85941 14.8463,-21.20533 24.16601,-21.13667 l 1.67342,0 -13.34451,21.66874 z"
       style="fill:#00385f;fill-opacity:1;fill-rule:nonzero;stroke:none"
       id="path6819"
       inkscape:connector-curvature="0" />
    <path
       d="m 556.23569,646.55426 -4.01623,0 c -5.149,0 -9.69729,-3.48416 -11.0532,-8.41005 l -6.05867,-22.87017 -11.29349,19.00842 -12.95833,0 36.21469,-61.35901 c 4.69417,-7.95522 9.54282,-10.83866 18.18457,-10.83866 l 1.36449,0 -24.09735,40.68574 18.0301,-12.42627 14.4773,0 -30.37915,20.99079 11.58527,35.21921 z"
       style="fill:#00385f;fill-opacity:1;fill-rule:nonzero;stroke:none"
       id="path6823"
       inkscape:connector-curvature="0" />
    <path
       d="m 436.6955,555.64853 c -12.19456,0 -18.56217,3.26104 -30.53361,11.89421 l -40.59993,29.24636 -25.98532,0 c -7.50897,0 -13.55906,0.30002 -18.26182,4.76283 l -6.73662,6.22172 c 0,0 19.54049,-0.76377 37.72507,-1.4503 l -38.86643,28.04493 16.82009,0 39.77609,-28.7143 c 7.72351,-0.30895 13.0184,-0.45449 13.10422,-0.45449 9.24247,-0.24029 14.39148,-8.41005 14.39148,-8.41005 l -15.2239,0 32.11264,-23.18769 -23.85707,38.63472 c -5.08035,8.86487 -7.57762,15.23248 -8.41004,22.04633 l 13.79076,0 c 0.52382,-5.75831 2.49727,-11.73974 6.05008,-17.65251 l 32.5074,-54.23622 c 2.26557,-3.71586 4.23935,-6.7452 4.23935,-6.7452 l -2.04244,0 z"
       style="fill:#00385f;fill-opacity:1;fill-rule:nonzero;stroke:none"
       id="path6827"
       inkscape:connector-curvature="0" />
    <path
       d="m 501.38764,602.54054 c -0.15447,1.14137 0.30894,1.89655 2.65173,3.40693 l 3.71587,2.42003 c 4.01623,2.66032 5.67249,6.67655 5.15759,9.92901 -1.37307,9.08799 -8.04103,16.43391 -22.27804,16.43391 -6.22172,0 -9.01934,-0.2142 -16.4425,-1.43314 l 5.5266,-9.3197 c 5.15759,0.90966 8.03246,1.37307 11.89421,1.37307 5.3893,0 7.50897,-2.42862 7.80933,-4.40241 0.14555,-1.13278 -0.38652,-2.49726 -2.9521,-4.24793 l -2.96068,-2.11109 c -4.69417,-3.40693 -5.98143,-6.05867 -5.37213,-10.22936 1.21002,-8.02387 10.52114,-14.24559 23.40224,-14.24559 4.09346,0 8.48728,0.23136 13.33593,0.76377 l -5.22624,8.79622 c -3.19239,-0.24029 -8.33281,-0.54099 -11.97144,-0.38583 -3.63864,0.0769 -6.05867,1.3559 -6.29037,3.25246"
       style="fill:#00385f;fill-opacity:1;fill-rule:nonzero;stroke:none"
       id="path6831"
       inkscape:connector-curvature="0" />
  </g>
</svg>
