<svg xmlns="http://www.w3.org/2000/svg" width="202" height="202" viewBox="0 0 202 202"><g transform="translate(-127 -1961)"><rect width="202" height="202" transform="translate(127 1961)" fill="#f0f6ff"/><g transform="translate(158.625 1847.274)"><g transform="translate(20 193.7)"><path d="M221.215,199.8l-10.978,18.6a13.313,13.313,0,0,0-1.975,5.645H204c.3-2.37,1.185-4.559,3.061-7.818l7.818-13.068c1.58-2.567,3.061-3.456,5.843-3.456C220.623,199.8,221.215,199.8,221.215,199.8Zm-.889,19.487a6.533,6.533,0,0,1-3.654,1.876c-.988,0-.988-.889-.4-2.074,2.37-4.46,4.855-6.83,7.818-6.83h.494l-4.263,7.028Zm4.147-9.5c-5.645,0-9,3.259-12.163,10.385-.79,1.876-1.185,4.049,1.382,3.95a11.739,11.739,0,0,0,5.645-2.074,18.852,18.852,0,0,0-.2,1.975h3.95a15.919,15.919,0,0,1,1.975-5.744l4.855-8.213c-1.58-.082-3.571-.28-5.448-.28Zm36.323,9.5a6.533,6.533,0,0,1-3.654,1.876c-.987,0-.987-.889-.395-2.074,2.37-4.46,4.855-6.83,7.818-6.83h.494l-4.263,7.028Zm4.147-9.5c-5.645,0-9,3.259-12.163,10.385-.79,1.876-1.185,4.049,1.382,3.95a11.739,11.739,0,0,0,5.645-2.074,4.216,4.216,0,0,0-.2,1.876h3.95a15.919,15.919,0,0,1,1.975-5.744l4.855-8.213c-1.58.016-3.571-.181-5.448-.181Z" transform="translate(-173.717 -198.712)" fill="#01426a"/><path d="M98.374,223H97.09a3.678,3.678,0,0,1-3.555-2.765l-1.876-7.324L88.1,219.046H83.94l11.57-19.783c1.58-2.567,3.061-3.456,5.843-3.456h.494l-7.818,13.167,5.843-4.049h4.658l-9.793,6.83L98.374,223ZM59.779,193.7c-3.95,0-6.04,1.086-9.891,3.851l-13.167,9.4H28.41c-2.469,0-4.361.1-5.941,1.58L20.3,210.5s6.336-.3,12.261-.395L20,219.128h5.448l12.87-9.3c2.567-.1,4.164-.2,4.164-.2a6.335,6.335,0,0,0,4.658-2.666H42.284l10.286-7.521-7.719,12.475a18.138,18.138,0,0,0-2.765,7.126h4.46a13.017,13.017,0,0,1,1.975-5.645l10.484-17.512c.79-1.284,1.481-2.173,1.481-2.173h-.708Zm20.968,15.043c-.1.4.1.592.889,1.086l1.185.79a3.362,3.362,0,0,1,1.679,3.16c-.494,2.962-2.666,5.448-7.225,5.448a37.03,37.03,0,0,1-5.349-.4l1.876-2.962a19.555,19.555,0,0,0,3.851.4c1.777,0,2.469-.79,2.567-1.382.1-.395-.1-.79-.987-1.383l-.987-.691c-1.58-1.086-1.876-1.975-1.777-3.259.395-2.568,3.357-4.559,7.62-4.559a33.387,33.387,0,0,1,4.263.3l-1.679,2.864a24.77,24.77,0,0,0-3.851-.1c-1.382-.2-2.074.1-2.074.691Zm35.731,6.04a2.366,2.366,0,0,1,2.271,2.271,2.222,2.222,0,1,1-4.444,0A2.34,2.34,0,0,1,116.478,214.783Zm0,4.147a1.794,1.794,0,0,0,1.777-1.876,1.768,1.768,0,0,0-1.777-1.777,1.794,1.794,0,0,0-1.777,1.876A1.768,1.768,0,0,0,116.478,218.93Zm-.3-.592h-.395v-2.469h.889a.949.949,0,0,1,.889.79.777.777,0,0,1-.494.691l.494.988h-.494l-.494-.889h-.2l-.2.889Zm.395-1.382a.395.395,0,1,0,0-.79h-.4v.691h.4Z" transform="translate(-20 -193.7)" fill="#01426a"/></g><g transform="translate(29.793 227.863)"><path d="M390.537,407.155V402.3h1.481v7.521h-1.481a.212.212,0,0,1-.2-.2c-.987-1.58-1.975-3.16-2.962-4.658a1.364,1.364,0,0,1-.3-.395v5.25H385.6V402.3h1.679a.212.212,0,0,1,.2.2c.889,1.481,1.876,2.962,2.765,4.361.1.1.1.2.3.3Z" transform="translate(-335.221 -402.131)" fill="#01426a"/><path d="M204.1,402.3h3.456a2.111,2.111,0,0,1,1.876,1.975,2.22,2.22,0,0,1-1.481,2.37.306.306,0,0,0-.2.1c.494.988,1.086,1.975,1.58,3.061h-1.58c-.1,0-.1-.1-.2-.2l-1.185-2.37a.541.541,0,0,0-.592-.4h-.3v2.864H204C204.1,407.353,204.1,404.769,204.1,402.3Zm1.382,3.374h1.382a.933.933,0,0,0,.987-.987,1,1,0,0,0-.889-1.086,5.584,5.584,0,0,0-1.284,0,.212.212,0,0,0-.2.2Z" transform="translate(-183.51 -402.131)" fill="#01426a"/><path d="M79.5,409.625c.395-.987.691-1.876,1.086-2.765.592-1.481,1.185-3.061,1.777-4.559.1-.2.2-.3.395-.2h1.284c.1,0,.2.1.3.2.889,2.469,1.876,4.855,2.765,7.324v.1H85.622a.212.212,0,0,1-.2-.2c-.2-.395-.3-.889-.494-1.284-.1-.2-.1-.2-.3-.2H82.067c-.2,0-.2.1-.3.2-.2.494-.3.889-.494,1.382,0,.1-.2.2-.2.2A4.908,4.908,0,0,0,79.5,409.625Zm4.756-3.061c-.395-.987-.691-1.876-1.086-2.864-.395.987-.691,1.876-.987,2.864Z" transform="translate(-79.5 -401.934)" fill="#01426a"/><path d="M525.6,406.79a6.389,6.389,0,0,0,1.284-.395v.1a1.632,1.632,0,0,0,2.172,1.284.838.838,0,0,0,.691-.79.917.917,0,0,0-.691-.889c-.494-.1-.889-.2-1.382-.3a2.1,2.1,0,0,1-1.876-1.876,1.993,1.993,0,0,1,.691-1.876,3.023,3.023,0,0,1,4.049,0,2.253,2.253,0,0,1,.592,1.185c-.395.1-.889.3-1.284.4,0-.1-.1-.1-.1-.2a1.377,1.377,0,0,0-1.975-.691,1.037,1.037,0,0,0-.494.889c0,.4.3.592.691.691.494.1.987.2,1.382.3a2.331,2.331,0,0,1,1.876,1.679,2.2,2.2,0,0,1-1.284,2.469,3.269,3.269,0,0,1-3.16-.2A2.126,2.126,0,0,1,525.6,406.79Z" transform="translate(-452.18 -401.272)" fill="#01426a"/><path d="M463.1,402.3h4.658v1.382H464.5v1.778h2.666c.3,0,.3.1.3.3v.987H464.5v1.778h3.259V409.9H463.1Z" transform="translate(-399.966 -402.131)" fill="#01426a"/><path d="M273.9,408.439h3.357v1.382H272.4V402.3h1.383C273.9,404.275,273.9,406.365,273.9,408.439Z" transform="translate(-240.652 -402.131)" fill="#01426a"/><path d="M156.5,409.821V402.3h1.481v7.521Z" transform="translate(-143.827 -402.131)" fill="#01426a"/><path d="M339.482,409.821H338.1V402.3h1.382Z" transform="translate(-295.539 -402.131)" fill="#01426a"/></g></g></g></svg>