<svg xmlns="http://www.w3.org/2000/svg" width="202" height="202" viewBox="0 0 202 202"><g transform="translate(-541 -1961)"><rect width="202" height="202" transform="translate(541 1961)" fill="#f0f6ff"/><g transform="translate(577.01 2129.046)"><g transform="translate(0 -80.312)"><path d="M14.719-48.807a19.228,19.228,0,0,1-4.318.6C4.264-48.21,0-51.278,0-57.688c0-6.49,3.965-10.13,10.4-10.13a12.54,12.54,0,0,1,4.291.788l-.272,3.2a7.825,7.825,0,0,0-4.1-1c-3.91,0-6.355,2.987-6.355,6.871,0,3.856,2.39,6.762,6.436,6.762a10.578,10.578,0,0,0,4.155-.788l.163,3.177" transform="translate(0 71.43)" fill="#2b4665"/><path d="M54.747-54.816h3.108v6.261h6.217v-6.261H67.18v15.5H64.072v-6.794H57.855v6.794H54.747v-15.5" transform="translate(-38.918 62.187)" fill="#2b4665"/><path d="M102.515-54.816h9.148v2.442h-6.039v3.819h5.528v2.442h-5.528v4.352h6.083v2.442h-9.192v-15.5" transform="translate(-72.876 62.187)" fill="#2b4665"/><path d="M148.879-40.2a15.723,15.723,0,0,1-3.53.488c-5.018,0-8.5-2.509-8.5-7.749,0-5.307,3.241-8.281,8.5-8.281a10.234,10.234,0,0,1,3.508.644l-.222,2.62a6.4,6.4,0,0,0-3.353-.822c-3.2,0-5.2,2.443-5.2,5.618,0,3.153,1.954,5.529,5.262,5.529a8.654,8.654,0,0,0,3.4-.644l.133,2.6" transform="translate(-97.28 62.842)" fill="#2b4665"/><path d="M182.54-54.816h3.108v7.4l1.292,1.593,1.75-1.686,6.639,8.193h-4.063l-5.573-7.194h-.044v7.194H182.54v-15.5" transform="translate(-129.764 62.187)" fill="#2b4665"/><path d="M195.148-80.076c-.353-.436-1-.134-1-.134a43.252,43.252,0,0,0-13.89,14.118l-.3-.63c-.955-2.122-1.823-3.009-2.6-3.009a4.494,4.494,0,0,0-3.016,1.737,4.567,4.567,0,0,1,1.759,1.355c2.165,2.348,3.018,5.394,3.72,9.2a48,48,0,0,1,7.076-13.926,30.433,30.433,0,0,1,8.2-7.781.76.76,0,0,0,.059-.926" transform="translate(-123.934 80.312)" fill="#c42028"/><path d="M232.648-41.761h1.465c1.443,0,3.2-.355,3.2-2.153,0-2.021-1.643-2.332-3.2-2.332h-1.465Zm0-6.794h1.266c1.31,0,2.931-.289,2.931-1.887,0-1.8-1.576-1.932-3-1.932h-1.2Zm-3.109-6.261h5.418c2,0,5,.577,5,3.974a3.459,3.459,0,0,1-3.087,3.463v.044a3.6,3.6,0,0,1,3.553,3.53c0,3.908-3.508,4.485-5.462,4.485h-5.418v-15.5" transform="translate(-163.175 62.187)" fill="#2b4665"/><path d="M277-42.149c3.175,0,4.351-2.82,4.351-5.617,0-2.731-1.266-5.529-4.351-5.529s-4.352,2.8-4.352,5.529C272.652-44.969,273.828-42.149,277-42.149Zm0-13.588c4.862,0,7.593,3.286,7.593,7.971S281.91-39.707,277-39.707c-4.974,0-7.593-3.308-7.593-8.059s2.664-7.971,7.593-7.971" transform="translate(-191.518 62.842)" fill="#2b4665"/><path d="M332.447-42.149c3.174,0,4.351-2.82,4.351-5.617,0-2.731-1.266-5.529-4.351-5.529s-4.352,2.8-4.352,5.529C328.1-44.969,329.272-42.149,332.447-42.149Zm0-13.588c4.861,0,7.592,3.286,7.592,7.971s-2.686,8.059-7.592,8.059c-4.974,0-7.593-3.308-7.593-8.059s2.664-7.971,7.593-7.971" transform="translate(-230.932 62.842)" fill="#2b4665"/><path d="M385.3-54.816h3.108v7.4l1.292,1.593,1.75-1.686,6.639,8.193h-4.063l-5.573-7.194h-.044v7.194H385.3v-15.5" transform="translate(-273.904 62.187)" fill="#2b4665"/><path d="M397.912-80.076c-.352-.436-1-.134-1-.134A43.243,43.243,0,0,0,383.02-66.092l-.3-.63c-.955-2.122-1.823-3.009-2.6-3.009a4.493,4.493,0,0,0-3.016,1.737,4.567,4.567,0,0,1,1.759,1.355c2.165,2.348,3.018,5.394,3.72,9.2a48,48,0,0,1,7.076-13.926,30.438,30.438,0,0,1,8.2-7.781.76.76,0,0,0,.059-.926" transform="translate(-268.074 80.312)" fill="#c42028"/><path d="M58.862-71.869a4.023,4.023,0,0,1-1.078.146A1.873,1.873,0,0,1,55.7-73.587a1.844,1.844,0,0,1,2.083-1.895,3.771,3.771,0,0,1,1.077.187l-.078.786a1.907,1.907,0,0,0-.947-.255A1.1,1.1,0,0,0,56.7-73.587a1.112,1.112,0,0,0,1.213,1.146,2.558,2.558,0,0,0,.906-.187l.047.76" transform="translate(-39.594 76.878)" fill="#2b4665"/><path d="M73.126-72.441c.588,0,.822-.562.822-1.161,0-.63-.234-1.161-.822-1.161s-.823.531-.823,1.161C72.3-73,72.538-72.441,73.126-72.441Zm0-3.04A1.68,1.68,0,0,1,74.948-73.6a1.689,1.689,0,0,1-1.822,1.879A1.689,1.689,0,0,1,71.3-73.6a1.68,1.68,0,0,1,1.822-1.879" transform="translate(-50.689 76.878)" fill="#2b4665"/><path d="M89.43-75.265h1.234L91.893-72.8H91.9l-.016-2.467h.885v3.634h-1.2L90.3-74.115h-.011l.031,2.483h-.89v-3.634" transform="translate(-63.574 76.724)" fill="#2b4665"/><path d="M106.72-72.681a2.13,2.13,0,0,0,1,.239c.307,0,.6-.062.6-.354,0-.676-1.718-.249-1.718-1.572,0-.874.854-1.114,1.583-1.114a3.062,3.062,0,0,1,.937.135l-.062.749a1.951,1.951,0,0,0-.807-.167c-.245,0-.651.021-.651.338,0,.588,1.718.193,1.718,1.5,0,.942-.791,1.2-1.6,1.2a3.808,3.808,0,0,1-1.083-.156l.083-.8" transform="translate(-75.78 76.878)" fill="#2b4665"/><path d="M124.583-73.011c0,.994-.645,1.442-1.593,1.442s-1.593-.448-1.593-1.442v-2.254h.968v2.093c0,.479.13.885.624.885s.625-.406.625-.885v-2.093h.968v2.254" transform="translate(-86.299 76.724)" fill="#2b4665"/><path d="M138.084-75.265h1.525l.771,2.415h.01l.807-2.415h1.468v3.634h-.947l.015-2.79h-.01l-.927,2.79h-.89l-.885-2.79h-.011l.021,2.79h-.947v-3.634" transform="translate(-98.161 76.724)" fill="#2b4665"/><path d="M159.684-75.265h2.561v.687h-1.593v.75h1.5v.687h-1.5v.822h1.65v.687h-2.618v-3.634" transform="translate(-113.516 76.724)" fill="#2b4665"/><path d="M175.249-73.756h.255c.313,0,.708-.011.708-.422,0-.338-.338-.4-.708-.4h-.255Zm-.968-1.51h1.729c.645,0,1.171.291,1.171.916a.849.849,0,0,1-.7.916v.011c.313.083.333.359.515.8l.354.989h-1.01l-.208-.656c-.2-.625-.323-.781-.682-.781h-.2v1.437h-.968v-3.634" transform="translate(-123.893 76.724)" fill="#2b4665"/><path d="M189.718-72.681a2.132,2.132,0,0,0,1,.239c.307,0,.6-.062.6-.354,0-.676-1.718-.249-1.718-1.572,0-.874.854-1.114,1.582-1.114a3.065,3.065,0,0,1,.937.135l-.062.749a1.952,1.952,0,0,0-.807-.167c-.245,0-.651.021-.651.338,0,.588,1.718.193,1.718,1.5,0,.942-.791,1.2-1.6,1.2a3.809,3.809,0,0,1-1.083-.156l.083-.8" transform="translate(-134.782 76.878)" fill="#2b4665"/><path d="M204.635-75.265h.874L205-73.855h-.713l.349-1.411" transform="translate(-145.223 76.724)" fill="#2b4665"/></g></g></g></svg>