<svg xmlns="http://www.w3.org/2000/svg" xmlns:xlink="http://www.w3.org/1999/xlink" width="202" height="202" viewBox="0 0 202 202"><defs><clipPath id="a"><rect width="106.974" height="34.99" fill="none"/></clipPath></defs><g transform="translate(-748 -1961)"><rect width="202" height="202" transform="translate(748 1961)" fill="#f0f6ff"/><g transform="translate(795.513 2047.299)"><g clip-path="url(#a)"><path d="M793.505,200.253h-.012c-4.22,0-6.429,2.992-6.429,5.948a6.264,6.264,0,0,0,12.517-.141,5.816,5.816,0,0,0-6.077-5.807m3.209,6.288c0,2.826-1.218,4.652-3.1,4.652-2.131,0-3.678-2.228-3.678-5.3,0-2.767,1.324-4.7,3.22-4.7h.012c2.156,0,3.549,2.1,3.549,5.345" transform="translate(-734.225 -186.809)" fill="#c10230"/><path d="M455.642,207.17v4.338l-.452.1a17.056,17.056,0,0,1-3.617.539c-4.226,0-6.957-2.293-6.957-5.842,0-4.159,3.6-6.053,6.95-6.053a17.6,17.6,0,0,1,3.7.6v2.712a3.99,3.99,0,0,0-7.488.548,6.239,6.239,0,0,0-.3,1.9c0,3.595,2.148,5.2,4.277,5.2a2.2,2.2,0,0,0,.993-.2.965.965,0,0,0,.373-.886V207.57a1.987,1.987,0,0,0-1.067-1.915h4.366s-.772.193-.772,1.516" transform="translate(-414.766 -186.809)" fill="#c10230"/><path d="M1158.67,207.17v4.338l-.452.1a17.056,17.056,0,0,1-3.617.539c-4.226,0-6.957-2.293-6.957-5.842,0-4.159,3.6-6.053,6.95-6.053a17.6,17.6,0,0,1,3.7.6v2.712a3.99,3.99,0,0,0-7.488.548,6.239,6.239,0,0,0-.3,1.9c0,3.595,2.148,5.2,4.277,5.2a2.2,2.2,0,0,0,.993-.2.965.965,0,0,0,.373-.886V207.57a1.987,1.987,0,0,0-1.067-1.915h4.367s-.772.193-.772,1.516" transform="translate(-1070.596 -186.809)" fill="#c10230"/><path d="M641.674,214.486a3.693,3.693,0,0,1-1.442-.156c-.306-.129-.36-.53-.36-1.327v-2.809h1.4c1.263,0,2.127.071,2.382.684v-2.487c-.241.61-1.066.719-2.382.719h-1.4v-3.549c0-.5,0-.5.626-.5h1.686a2.176,2.176,0,0,1,1.964.692,5.064,5.064,0,0,1,.695,1.3V204.1h-8.486c.267.178.964.812.964,2.573l0,6.162c0,2.178-1.064,2.632-1.064,2.632h8.8v-3.183a8.763,8.763,0,0,1-1.05,1.593c-.579.654-2.106.612-2.326.612" transform="translate(-593.539 -190.396)" fill="#c10230"/><path d="M992.172,207.381a2.418,2.418,0,0,1-.81,1.977h0a2.577,2.577,0,0,1-1.705.432h-.333V205.7c0-.324.034-.481.115-.555a1.258,1.258,0,0,1,.757-.165c.955,0,1.976.63,1.976,2.4m2.247,5.529c-.5-.825-1.263-2.057-1.64-2.754a2.993,2.993,0,0,0,2.039-2.769v0c.006-.081.01-.164.01-.249a2.791,2.791,0,0,0-1.207-2.373,5.5,5.5,0,0,0-3.25-.663h-4.481c.267.178.964.812.964,2.573l0,6.162c0,2.178-1.064,2.632-1.064,2.632h4.6s-1.064-.454-1.064-2.632v-2.157h.239a1.121,1.121,0,0,1,1.1.664c.175.31.343.62.506.921.321.592.735,1.381,1.037,1.844.714,1.091,1.4,1.565,3.59,1.495,0,0,.373-.013.658-.038a9.9,9.9,0,0,1-2.031-2.652" transform="translate(-919.606 -190.396)" fill="#c10230"/><path d="M1345.355,215.465s-1.064-.454-1.064-2.632l0-6.162c0-1.76.7-2.394.964-2.573h-4.4c.267.178.964.812.964,2.573l0,6.162c0,2.178-1.064,2.632-1.064,2.632Z" transform="translate(-1250.741 -190.396)" fill="#c10230"/><path d="M1428.785,215.465c-.974-.6-1.237-1.18-1.8-2.639-.946-2.439-2.249-5.91-3.279-8.662l-.025-.066h-1.208l-3.615,8.785a5.252,5.252,0,0,1-1.923,2.582h3.18c-.682-.285-.526-1.177-.247-1.881.053-.148.274-.693.563-1.4h3.6c.289.8.509,1.409.54,1.5a1.563,1.563,0,0,1-.358,1.782Zm-7.889-4.4c.687-1.663,1.462-3.523,1.462-3.523l1.276,3.523Z" transform="translate(-1321.811 -190.396)" fill="#c10230"/><path d="M463.976,91.3v-2.5c0-.229-.075-.3-.627-.317v-.333h2.559v.333c-.365.022-.582.074-.582.317v2.534c0,.864.4,1.234,1.194,1.234a1.032,1.032,0,0,0,.761-.273,1.431,1.431,0,0,0,.343-1.108V89.6c0-.709-.157-1.049-.865-1.115v-.333h2.014v.333c-.664.081-.694.406-.694,1.115v1.714c0,1.13-.619,1.817-1.947,1.817-1.365,0-2.156-.517-2.156-1.832" transform="translate(-432.242 -82.239)"/><path d="M566.455,89.561h-.045V91.57c0,.717.089,1.049.806,1.116v.332h-1.985v-.332c.664-.074.746-.392.746-1.116V89.191c0-.392-.142-.687-.746-.7v-.333h1.761l2.559,3.184h.045V89.6c0-.709-.157-1.049-.866-1.115v-.333h1.992v.333c-.664.081-.694.406-.694,1.115v3.457h-.753Z" transform="translate(-527.284 -82.239)"/><path d="M668.583,92.684c.552-.022.642-.089.642-.318V88.806c0-.229-.09-.3-.642-.318v-.333h2.634v.333c-.552.022-.642.089-.642.318v3.561c0,.229.089.3.642.318v.332h-2.634Z" transform="translate(-623.697 -82.238)"/><path d="M728.815,88.97c-.119-.31-.254-.391-.724-.48v-.332h2.768v.332c-.649.037-.739.17-.649.421l1.052,3h.075l.88-2.519c.224-.643.224-.8-.477-.9v-.332h1.888v.332c-.507.1-.574.281-.813.894l-1.4,3.679h-1.059Z" transform="translate(-679.21 -82.239)"/><path d="M827.606,92.684c.552-.022.627-.089.627-.318V88.806c0-.229-.075-.3-.627-.318v-.333h4.357l.067,1.744-.4.015c-.291-.835-.574-1.4-1.485-1.4h-.56v1.876h.112c.477,0,.642-.066.9-.724h.336v1.824H830.6c-.261-.657-.425-.746-.9-.746h-.112v1.913h.485c1.089,0,1.388-.584,1.731-1.529l.4.015-.074,1.876h-4.522Z" transform="translate(-772.044 -82.238)"/><path d="M925.2,92.367c0,.244.216.3.582.318v.332h-2.559v-.332c.552-.022.627-.089.627-.318V88.806c0-.229-.075-.3-.627-.318v-.333h2.649c1.492,0,1.932.569,1.932,1.182,0,.591-.336,1.049-1.47,1.219v.022c1.044.007,1.335.414,1.395.975l.06.532c.052.495.127.569.656.6v.332c-.291.022-.537.03-.761.03-1.09,0-1.253-.281-1.3-.864l-.045-.569c-.03-.709-.186-.857-.955-.857H925.2Zm.3-1.95c.768,0,.925-.244.925-.982,0-.606-.209-.923-.977-.923H925.2v1.906Z" transform="translate(-861.242 -82.238)"/><path d="M1024.9,89.356h.4c.38.813.9,1.359,1.515,1.359a.711.711,0,0,0,.791-.709c0-.473-.269-.665-1.074-.9-.828-.244-1.6-.613-1.6-1.522a1.589,1.589,0,0,1,1.753-1.6,2.339,2.339,0,0,1,1.022.236l.2-.266h.38v1.536h-.4c-.358-.7-.776-1.138-1.291-1.138a.631.631,0,0,0-.671.65c0,.473.291.628,1.141.886.687.207,1.455.554,1.455,1.47a1.653,1.653,0,0,1-1.843,1.721,2.754,2.754,0,0,1-1.194-.236l-.2.266h-.38Z" transform="translate(-956.09 -80.187)"/><path d="M1102.737,92.684c.552-.022.642-.089.642-.318V88.806c0-.229-.089-.3-.642-.318v-.333h2.634v.333c-.552.022-.642.089-.642.318v3.561c0,.229.09.3.642.318v.332h-2.634Z" transform="translate(-1028.704 -82.238)"/><path d="M1169.361,92.684c.619-.015.739-.089.739-.318V88.511h-.06c-.544,0-.865.524-1.239,1.4l-.388-.015.037-1.744h4.648l.038,1.744-.388.015c-.366-.909-.694-1.4-1.239-1.4h-.06v3.856c0,.229.119.3.739.318v.332h-2.828Z" transform="translate(-1089.972 -82.238)"/><path d="M1264.34,89.324c.343-.569.3-.768-.291-.835v-.333h1.813v.333c-.447.066-.6.258-.918.761l-1.015,1.588v1.529c0,.229.09.3.642.318v.332h-2.634v-.332c.552-.022.642-.089.642-.318V91l-1.239-2.061a.793.793,0,0,0-.754-.451v-.333h2.686v.333c-.634.03-.627.162-.463.458l.836,1.514Z" transform="translate(-1175.957 -82.239)"/><path d="M1392.723,88.959a2.381,2.381,0,0,1,2.514-2.563,2.34,2.34,0,0,1,2.514,2.534,2.377,2.377,0,0,1-2.514,2.563,2.336,2.336,0,0,1-2.514-2.534m3.581-.015c0-1.581-.306-2.179-1.1-2.179s-1.037.6-1.037,2.179.306,2.179,1.1,2.179,1.037-.591,1.037-2.179" transform="translate(-1299.222 -80.596)"/><path d="M1488.068,92.684c.552-.022.627-.089.627-.318V88.806c0-.229-.075-.3-.627-.318v-.333h4.357V89.9l-.4.015c-.313-.886-.656-1.4-1.567-1.4h-.41v1.935h.127c.477,0,.642-.052.888-.665h.336v1.765h-.336c-.261-.657-.411-.746-.888-.746h-.127v1.566c0,.244.007.31.672.332v.318h-2.649Z" transform="translate(-1388.165 -82.238)"/><path d="M88.941,161.73v10.1a.62.62,0,0,1-.334.551.107.107,0,0,0-.057.094v1.864h-4.2l-.783.743v-2.605a.106.106,0,0,0-.057-.1.616.616,0,0,1-.334-.551V161.711a.462.462,0,0,1,.395-.438h4.969a.464.464,0,0,1,.4.457" transform="translate(-77.593 -150.446)"/><path d="M98.184,71.561H85.68a6.382,6.382,0,0,1,12.5,0" transform="translate(-79.928 -61.998)"/><path d="M0,0V25.649c0,4.893,6.121,8.336,12.043,9.341,5.922-1,12.041-4.448,12.041-9.341V0ZM23,25.649c0,2.389-1.817,4.167-3.339,5.24a19.653,19.653,0,0,1-7.616,3,19.653,19.653,0,0,1-7.616-3c-1.524-1.072-3.339-2.851-3.339-5.24v-.58h2.8V27.13a.1.1,0,0,0,.106.106H5.87a.1.1,0,0,0,.106-.106V25.069h4.981V27.13a.1.1,0,0,0,.106.106h1.881a.106.106,0,0,0,.107-.106V25.069h4.98V27.13a.105.105,0,0,0,.106.106h1.881a.107.107,0,0,0,.107-.106V25.069H23ZM12.992,21.932a.616.616,0,0,1-.334-.551V11.266a.461.461,0,0,1,.395-.438h4.969a.464.464,0,0,1,.4.457v10.1a.62.62,0,0,1-.334.551.107.107,0,0,0-.057.094V23.89h-4.2l-.783.743V22.028a.108.108,0,0,0-.059-.1M5.752,9.564a6.382,6.382,0,0,1,12.5,0Zm.227,1.264h4.969a.464.464,0,0,1,.4.457v10.1a.62.62,0,0,1-.334.551.107.107,0,0,0-.057.094V23.89h-4.2l-.783.743V22.028a.106.106,0,0,0-.057-.1.616.616,0,0,1-.334-.551V11.266a.461.461,0,0,1,.395-.438M23,23.89H20.908v0l-.783.741V22.028a.109.109,0,0,0-.057-.1.614.614,0,0,1-.336-.551V11.266a.464.464,0,0,1,.4-.438.106.106,0,0,0,.092-.1V9.669a.106.106,0,0,0-.106-.106h-.762a7.462,7.462,0,0,0-14.7,0h-.76a.105.105,0,0,0-.106.106v1.055a.108.108,0,0,0,.09.106.462.462,0,0,1,.4.456v10.1a.62.62,0,0,1-.334.551.107.107,0,0,0-.057.094V23.89h-2.8V1.087H23Z" transform="translate(0 -0.001)" fill="#fff"/><path d="M194.307,161.73v10.1a.62.62,0,0,1-.334.551.107.107,0,0,0-.057.094v1.864h-4.2l-.783.743v-2.605a.108.108,0,0,0-.059-.1.616.616,0,0,1-.334-.551V161.711a.462.462,0,0,1,.395-.438h4.969a.464.464,0,0,1,.4.457" transform="translate(-175.885 -150.446)"/><path d="M35.239,373.4v2.061a.106.106,0,0,1-.107.106H33.251a.105.105,0,0,1-.106-.106V373.4h-4.98v2.061a.107.107,0,0,1-.107.106H26.177a.105.105,0,0,1-.106-.106V373.4H21.09v2.061a.105.105,0,0,1-.106.106H19.1a.105.105,0,0,1-.106-.106V373.4H16.2v.58c0,2.389,1.815,4.167,3.339,5.24a19.653,19.653,0,0,0,7.616,3,19.653,19.653,0,0,0,7.616-3c1.523-1.072,3.339-2.851,3.339-5.24v-.58Zm-10.993,6.2H22.772v-.144c.286-.01.423-.042.423-.178v-1.49a.3.3,0,0,0-.069-.229.494.494,0,0,0-.346-.087h-.026v-.139l1.067-.074v2.018c0,.137.137.168.426.178Zm2.475-2.087-.658,1.167-.475.953H25.1V379.5l1.252-1.723.016-.021h-.845c-.336,0-.411.081-.478.362h-.133l.023-.856h1.786Zm1.54,2.151c-.629,0-.989-.218-.989-.6,0-.234.154-.414.459-.533l.026-.01-.024-.014a.663.663,0,0,1-.39-.573c0-.443.357-.729.909-.729.594,0,.866.291.866.559,0,.215-.156.381-.462.5l-.033.012.031.012c.362.156.539.365.539.644,0,.417-.4.733-.932.733m2.555-.009c-.579,0-.925-.2-.925-.535a.311.311,0,0,1,.334-.322.289.289,0,0,1,.3.31.334.334,0,0,1-.173.286l-.019.01.017.012a.705.705,0,0,0,.329.081c.324,0,.488-.194.488-.578,0-.345-.18-.54-.492-.54a.984.984,0,0,0-.516.144l-.116-.092.048-1.164h1.542l-.036.475H30.31l-.028.547,0,.023.021-.009a1.248,1.248,0,0,1,.553-.113c.431,0,.892.184.892.7a.818.818,0,0,1-.93.769" transform="translate(-15.114 -348.328)" fill="#c10230"/><path d="M38.113,16.177v22.8H36.022v0l-.783.741V37.118a.109.109,0,0,0-.057-.1.614.614,0,0,1-.336-.551V26.356a.464.464,0,0,1,.4-.438.106.106,0,0,0,.092-.1V24.759a.106.106,0,0,0-.106-.106h-.762a7.462,7.462,0,0,0-14.7,0h-.76a.1.1,0,0,0-.106.106v1.055a.108.108,0,0,0,.09.106.462.462,0,0,1,.4.456v10.1a.62.62,0,0,1-.334.551.107.107,0,0,0-.057.094V38.98H16.2v-22.8Z" transform="translate(-15.114 -15.091)"/><path d="M115.269,433.022v.144H113.8v-.144c.286-.01.423-.042.423-.178v-1.49a.3.3,0,0,0-.069-.229.5.5,0,0,0-.346-.087h-.026V430.9l1.067-.075v2.018c0,.137.137.168.426.178" transform="translate(-106.138 -401.902)" fill="#fff"/><path d="M147.755,430.929v.246l-.658,1.167-.475.953h-.487v-.128l1.252-1.723.016-.021h-.845c-.336,0-.41.081-.478.362h-.133l.023-.856Z" transform="translate(-136.149 -401.998)" fill="#fff"/><path d="M182.469,431.107l-.031-.012.033-.012c.307-.116.462-.282.462-.5,0-.268-.272-.559-.866-.559-.553,0-.909.286-.909.729a.663.663,0,0,0,.39.573l.024.014-.026.01c-.3.12-.459.3-.459.533,0,.379.36.6.989.6.532,0,.932-.315.932-.733,0-.279-.177-.488-.539-.644m-.454-.923a.4.4,0,0,1,.45.4.62.62,0,0,1-.177.443l-.007.007-.007,0c-.308-.113-.61-.246-.61-.521a.33.33,0,0,1,.35-.327m.057,2.143a.5.5,0,0,1-.5-.488.563.563,0,0,1,.166-.405l.005-.007.01,0a.754.754,0,0,0,.125.045c.445.147.6.274.6.483a.366.366,0,0,1-.409.369" transform="translate(-168.93 -401.156)" fill="#fff"/><path d="M189.219,451.4a.366.366,0,0,1-.409.369.5.5,0,0,1-.5-.488.563.563,0,0,1,.166-.405l.005-.007.01,0a.755.755,0,0,0,.125.045c.445.147.6.274.6.483" transform="translate(-175.668 -420.603)" fill="#c10230"/><path d="M190.5,432.776a.62.62,0,0,1-.177.443l-.007.007-.007,0c-.308-.113-.61-.246-.61-.521a.329.329,0,0,1,.35-.327.4.4,0,0,1,.45.4" transform="translate(-176.968 -403.346)" fill="#c10230"/><path d="M221.951,432.549a.818.818,0,0,1-.93.769c-.579,0-.925-.2-.925-.535a.311.311,0,0,1,.334-.322.289.289,0,0,1,.3.31.334.334,0,0,1-.173.286l-.019.01.017.012a.705.705,0,0,0,.329.081c.324,0,.488-.194.488-.578,0-.345-.18-.54-.492-.54a.984.984,0,0,0-.516.144l-.116-.092.049-1.164h1.542l-.036.475h-1.285l-.028.547,0,.023.021-.009a1.247,1.247,0,0,1,.553-.113c.431,0,.892.184.892.7" transform="translate(-205.32 -401.999)" fill="#fff"/><path d="M327.961,465.894a.586.586,0,1,1-.584-.57.572.572,0,0,1,.584.57m-1.025,0a.441.441,0,0,0,.445.455.436.436,0,0,0,.434-.451.44.44,0,1,0-.879,0m.351.3h-.132v-.57a1.145,1.145,0,0,1,.219-.018.356.356,0,0,1,.2.042.157.157,0,0,1,.055.125.145.145,0,0,1-.118.132v.007a.168.168,0,0,1,.1.139.439.439,0,0,0,.042.143h-.142a.489.489,0,0,1-.045-.139c-.01-.062-.045-.09-.118-.09h-.063Zm0-.323h.063c.073,0,.132-.024.132-.083s-.038-.087-.122-.087a.329.329,0,0,0-.073.007Z" transform="translate(-304.851 -434.084)"/></g></g></g></svg>