<svg xmlns="http://www.w3.org/2000/svg" width="202" height="202" viewBox="0 0 202 202"><g transform="translate(-127 -1754)"><rect width="202" height="202" transform="translate(127 1754)" fill="#f0f6ff"/><g transform="translate(167.572 1835.108)"><path d="M90.835,34.471a9.973,9.973,0,1,1-9.973-9.941A9.819,9.819,0,0,1,90.835,34.471Zm-4.366,0a5.622,5.622,0,1,0-11.214,0,5.622,5.622,0,1,0,11.214,0Z" transform="translate(-39.116 -13.535)" fill="#ea4335"/><path d="M138.835,34.471a9.973,9.973,0,1,1-9.973-9.941A9.819,9.819,0,0,1,138.835,34.471Zm-4.366,0a5.622,5.622,0,1,0-11.214,0,5.622,5.622,0,1,0,11.214,0Z" transform="translate(-65.602 -13.535)" fill="#fbbc05"/><path d="M185.928,25.131V42.978c0,7.342-4.33,10.34-9.448,10.34a9.467,9.467,0,0,1-8.812-5.858l3.8-1.582a5.491,5.491,0,0,0,5.007,3.527c3.276,0,5.307-2.021,5.307-5.827v-1.43h-.152a6.769,6.769,0,0,1-5.235,2.259,9.948,9.948,0,0,1,0-19.878,6.889,6.889,0,0,1,5.235,2.223h.152V25.135h4.146Zm-3.837,9.377c0-3.5-2.335-6.06-5.307-6.06a5.748,5.748,0,0,0-5.535,6.06,5.706,5.706,0,0,0,5.535,5.988C179.756,40.5,182.091,37.972,182.091,34.507Z" transform="translate(-92.077 -13.535)" fill="#4285f4"/><path d="M219.4,2.53V31.664H215.14V2.53Z" transform="translate(-118.712 -1.396)" fill="#34a853"/><path d="M243.49,37.738,246.878,40A9.9,9.9,0,0,1,238.6,44.4a9.727,9.727,0,0,1-9.865-9.941c0-5.912,4.254-9.941,9.377-9.941,5.159,0,7.682,4.106,8.507,6.324l.453,1.129-13.289,5.5A5.06,5.06,0,0,0,238.6,40.49,5.674,5.674,0,0,0,243.49,37.738Zm-10.43-3.577,8.884-3.689a3.849,3.849,0,0,0-3.689-2.107A5.453,5.453,0,0,0,233.06,34.161Z" transform="translate(-126.211 -13.53)" fill="#ea4335"/><path d="M15.656,18.35V14.132H29.869a13.975,13.975,0,0,1,.211,2.546,13.928,13.928,0,0,1-3.653,9.865,14.115,14.115,0,0,1-10.766,4.33A15.653,15.653,0,0,1,0,15.436,15.653,15.653,0,0,1,15.66,0,14.709,14.709,0,0,1,26.238,4.254L23.262,7.23a10.751,10.751,0,0,0-7.606-3.012A11.073,11.073,0,0,0,4.585,15.436,11.073,11.073,0,0,0,15.656,26.655a10.327,10.327,0,0,0,7.794-3.088,8.742,8.742,0,0,0,2.286-5.222Z" fill="#4285f4"/></g></g></svg>