<svg xmlns="http://www.w3.org/2000/svg" width="202" height="202" viewBox="0 0 202 202"><g transform="translate(-955 -1961)"><rect width="202" height="202" transform="translate(955 1961)" fill="#f0f6ff"/><g transform="translate(998.13 2053.939)"><path d="M3.184,4.714V15.646H0V.451H3.184V2.858C4.99,1.254,6.619,0,8.074,0a4.115,4.115,0,0,1,4.313,2.959C14.342,1.3,16.072,0,17.627,0c3.46,0,4.714,2.382,4.714,6.018v9.628h-3.26V6.67c0-2.708-.6-3.811-2.507-3.811a5.8,5.8,0,0,0-3.861,1.78c.025.426.05.9.05,1.354v9.628H9.5V6.67C9.5,3.962,8.9,2.858,7,2.858A5.549,5.549,0,0,0,3.184,4.714ZM42.3,16.1c-4.162,0-7.021-2.883-7.021-7.647a10.52,10.52,0,0,1,.953-4.363C37.861,2.332,40.393,0,43.126,0a5.689,5.689,0,0,1,5.115,2.583L46.311,5.015A5.015,5.015,0,0,0,42.1,2.583a5.336,5.336,0,0,0-2.984.953,10.824,10.824,0,0,0-.652,3.886c0,4.212,2.006,6.043,4.864,6.043a7.65,7.65,0,0,0,4.513-1.63l.577.928L45.91,15.295A8.177,8.177,0,0,1,42.3,16.1ZM60.277,9.829C62.082,8.224,64.238,6.67,67,6.67a14.644,14.644,0,0,1,2.457.226V5.942c0-2.206-.9-3.36-3.209-3.36a8.467,8.467,0,0,0-4.814,1.7l-.552-.9L63.486.928a7.946,7.946,0,0,1,3.786-.9c3.46,0,5.265,2.031,5.265,5.566v10.08H69.454V13.515c-1.329,1.178-3.26,2.608-4.864,2.608-2.808,0-4.689-1.63-4.689-4.313A4.305,4.305,0,0,1,60.277,9.829Zm9.177,1.906V9.077A9.543,9.543,0,0,0,66.47,8.65a6.793,6.793,0,0,0-3.184.7,3.784,3.784,0,0,0-.3,1.529,2.557,2.557,0,0,0,2.658,2.808C67.1,13.69,68.275,12.712,69.454,11.734Zm15.169,1.68,2.006-2.006a5.765,5.765,0,0,0,4.764,2.257,5.506,5.506,0,0,0,2.758-.7,3.46,3.46,0,0,0,.2-1.128c0-1.881-1.805-2.332-4.087-2.833C87.506,8.4,85.5,7.4,85.5,5.015a4.3,4.3,0,0,1,.552-2.131C87.456,1.58,89.487,0,91.869,0a5.6,5.6,0,0,1,4.864,2.206L94.8,4.187a4.616,4.616,0,0,0-4.062-1.981,4.711,4.711,0,0,0-2.407.627,3.626,3.626,0,0,0-.2,1.178c0,1.655,1.555,1.755,3.937,2.307,2.733.627,5.015,1.7,5.015,4.563a4.693,4.693,0,0,1-.451,2.056c-1.3,1.3-3.56,3.159-6.293,3.159A6.7,6.7,0,0,1,84.623,13.414Zm18.5,2.181V.627a28.9,28.9,0,0,1,5.291-.376c4.789,0,7.321,1.931,7.321,6.97a12.594,12.594,0,0,1-.928,5.04c-1.454,1.379-3.861,3.535-6.569,3.535A45.337,45.337,0,0,1,103.127,15.6Zm3.159-2.507a20.685,20.685,0,0,0,2.532.125,5.665,5.665,0,0,0,2.984-.627,12.5,12.5,0,0,0,.727-4.639c0-3.811-1.5-5.792-4.538-5.792a9.836,9.836,0,0,0-1.68.125V13.088Z"/></g></g></svg>