<svg xmlns="http://www.w3.org/2000/svg" width="202" height="202" viewBox="0 0 202 202"><g transform="translate(-955 -1754)"><rect width="202" height="202" transform="translate(955 1754)" fill="#f0f6ff"/><g transform="translate(918.079 1603.7)"><g transform="translate(76 238.8)"><rect width="13.748" height="5.499" transform="translate(35.745 0)"/><rect width="5.499" height="17.882" transform="translate(8.941 0)"/><rect width="5.499" height="26.131" transform="translate(17.882 0)"/><rect width="5.499" height="26.131" transform="translate(0 0)"/><rect width="5.499" height="17.19" transform="translate(35.745 8.941)"/><rect width="5.499" height="5.499" transform="translate(26.822 0)"/><rect width="5.499" height="17.19" transform="translate(26.822 8.941)"/></g><g transform="translate(135.654 238.818)"><path d="M412.2,238.9h2.24l1.074,4.552h.018l1.111-4.552h2.222v6.118h-1.439v-4.753h-.018l-1.22,4.753H414.84l-1.238-4.753h-.018v4.753H412.2Z" transform="translate(-410.634 -238.9)"/><path d="M457.915,250.269a2.344,2.344,0,0,0,.127.947H456.8a1.983,1.983,0,0,1-.091-.473H456.7a1.781,1.781,0,0,1-1.366.6,1.357,1.357,0,0,1-1.53-1.366c0-1.093.892-1.493,2.349-1.693l.492-.073v-.382c0-.346-.273-.492-.637-.492a.6.6,0,0,0-.71.6H454c.036-1.311,1.256-1.439,1.876-1.439,1.238,0,2.021.291,2.039,1.329Zm-1.293-1.256-.91.255c-.328.091-.637.219-.637.6,0,.364.31.51.619.51.528,0,.91-.346.91-1.056l.018-.31Z" transform="translate(-444.659 -245.116)"/><path d="M484.123,248.093a1.841,1.841,0,0,0-1.256-.492c-.328,0-.583.127-.583.346,0,.783,2.713.146,2.713,1.839,0,1.2-1.074,1.639-2.058,1.639a2.925,2.925,0,0,1-2.24-.91l.838-.728a1.958,1.958,0,0,0,1.439.637c.219,0,.728-.055.728-.455,0-.71-2.713-.146-2.713-1.766,0-1.147,1-1.6,1.93-1.6a3.755,3.755,0,0,1,2.021.656Z" transform="translate(-466.661 -245.198)"/><path d="M510.323,248.093a1.841,1.841,0,0,0-1.256-.492c-.328,0-.583.127-.583.346,0,.783,2.713.146,2.713,1.839,0,1.2-1.056,1.639-2.058,1.639a2.925,2.925,0,0,1-2.24-.91l.838-.728a1.958,1.958,0,0,0,1.439.637c.219,0,.728-.055.728-.455,0-.71-2.713-.146-2.713-1.766,0-1.147,1-1.6,1.93-1.6a3.755,3.755,0,0,1,2.021.656Z" transform="translate(-488.09 -245.198)"/><path d="M538.415,250.269a2.344,2.344,0,0,0,.127.947H537.3a1.988,1.988,0,0,1-.091-.473H537.2a1.781,1.781,0,0,1-1.366.6,1.357,1.357,0,0,1-1.53-1.366c0-1.093.892-1.493,2.349-1.693l.492-.073v-.382c0-.346-.273-.492-.637-.492a.6.6,0,0,0-.71.6H534.5c.036-1.311,1.256-1.439,1.876-1.439,1.238,0,2.021.291,2.039,1.329Zm-1.293-1.256-.91.255c-.328.091-.637.219-.637.6,0,.364.31.51.619.51.528,0,.91-.346.91-1.056l.018-.31Z" transform="translate(-510.5 -245.116)"/><path d="M565.1,248.521a.979.979,0,0,0-.856-.619c-.765,0-1.038.6-1.038,1.384s.328,1.384,1.038,1.384a.909.909,0,0,0,.947-.674l.965.492a2.353,2.353,0,0,1-2.039,1.22,2.2,2.2,0,0,1-2.313-2.4,2.224,2.224,0,0,1,2.276-2.4,2.168,2.168,0,0,1,2.058,1.111Z" transform="translate(-532.993 -245.443)"/><path d="M589.9,238.9h1.347v1.985h.018a1.707,1.707,0,0,1,1.257-.546,1.315,1.315,0,0,1,1.438,1.475v3.2h-1.347v-2.75c0-.71-.382-.874-.674-.874-.31,0-.692.2-.692,1.056v2.568H589.9V238.9Z" transform="translate(-555.976 -238.9)"/><path d="M622.761,252.052h-1.347v-.4a1.78,1.78,0,0,1-1.329.528c-1.074,0-1.384-.619-1.384-1.311V247.5h1.347v2.986c0,.4.146.619.656.619a.659.659,0,0,0,.71-.71v-2.9h1.347v4.552Z" transform="translate(-579.532 -245.934)"/><path d="M648.523,248.093a1.841,1.841,0,0,0-1.256-.492c-.328,0-.583.127-.583.346,0,.783,2.713.146,2.713,1.839,0,1.2-1.074,1.639-2.058,1.639a2.925,2.925,0,0,1-2.24-.91l.838-.728a1.958,1.958,0,0,0,1.439.637c.219,0,.728-.055.728-.455,0-.71-2.713-.146-2.713-1.766,0-1.147,1-1.6,1.93-1.6a3.755,3.755,0,0,1,2.021.656Z" transform="translate(-601.124 -245.198)"/><path d="M673.348,249.295a1.006,1.006,0,0,0,1,1.147c.492,0,.728-.255,1.111-.8l1,.528a2.314,2.314,0,0,1-2.222,1.256,2.131,2.131,0,0,1-2.24-2.276c0-1.621.856-2.549,2.24-2.549,1.675,0,2.24,1.275,2.24,2.677C676.5,249.295,673.348,249.295,673.348,249.295Zm1.8-.819a.86.86,0,0,0-.911-.874.921.921,0,0,0-.91.874Z" transform="translate(-623.126 -245.198)"/><path d="M701.6,242.749h-.8v2.24c0,.364.182.455.419.455.146,0,.328-.018.4-.018v1.056c-.164.018-.565.055-.856.055-1.147,0-1.311-.71-1.311-1.384v-2.4H698.8v-.819h.656V240.6H700.8v1.329h.8v.819Z" transform="translate(-645.046 -240.29)"/><path d="M718.2,242.749h-.8v2.24c0,.364.182.455.419.455.146,0,.328-.018.4-.018v1.056c-.164.018-.564.055-.856.055-1.147,0-1.311-.71-1.311-1.384v-2.4H715.4v-.819h.656V240.6H717.4v1.329h.8v.819Z" transform="translate(-658.623 -240.29)"/><path d="M735.923,248.093a1.841,1.841,0,0,0-1.256-.492c-.328,0-.583.127-.583.346,0,.783,2.713.146,2.713,1.839,0,1.2-1.074,1.639-2.058,1.639a2.925,2.925,0,0,1-2.24-.91l.838-.728a1.958,1.958,0,0,0,1.439.637c.219,0,.728-.055.728-.455,0-.71-2.713-.146-2.713-1.766,0-1.147,1-1.6,1.93-1.6a3.755,3.755,0,0,1,2.021.656Z" transform="translate(-672.609 -245.198)"/><path d="M412.4,293.8h1.53v6.118H412.4Z" transform="translate(-410.798 -283.803)"/><path d="M427.3,301.727h1.348v.4a1.78,1.78,0,0,1,1.329-.528c1.074,0,1.384.619,1.384,1.311v3.369h-1.348v-2.859c0-.455-.146-.747-.656-.747-.546,0-.71.346-.71.765v2.841H427.3Z" transform="translate(-422.984 -290.183)"/><path d="M457.023,302.993a1.841,1.841,0,0,0-1.256-.492c-.328,0-.583.127-.583.346,0,.783,2.713.146,2.713,1.839,0,1.2-1.074,1.639-2.058,1.639a2.925,2.925,0,0,1-2.24-.91l.838-.728a1.958,1.958,0,0,0,1.439.637c.219,0,.728-.055.728-.455,0-.71-2.713-.146-2.713-1.766,0-1.147,1-1.6,1.93-1.6a3.755,3.755,0,0,1,2.021.656Z" transform="translate(-444.495 -290.101)"/><path d="M482.2,297.73h-.8v2.24c0,.364.182.455.419.455.146,0,.328-.018.4-.018v1.056c-.164.018-.564.055-.856.055-1.147,0-1.311-.71-1.311-1.366v-2.4H479.4v-.819h.656V295.6H481.4v1.329h.8Z" transform="translate(-465.597 -285.275)"/><path d="M499,294.838V293.8h1.348v1.038Zm1.348.51v4.571H499v-4.571Z" transform="translate(-481.628 -283.803)"/><path d="M512.8,297.73H512v2.24c0,.364.182.455.419.455.146,0,.328-.018.4-.018v1.056c-.164.018-.564.055-.856.055-1.147,0-1.311-.71-1.311-1.366v-2.4H510v-.819h.656V295.6H512v1.329h.8Z" transform="translate(-490.625 -285.275)"/><path d="M533.561,306.952h-1.348v-.4a1.78,1.78,0,0,1-1.329.528c-1.074,0-1.384-.619-1.384-1.311V302.4h1.348v2.986c0,.4.146.619.656.619a.659.659,0,0,0,.71-.71v-2.9h1.348v4.552Z" transform="translate(-506.574 -290.837)"/><path d="M558.2,297.73h-.8v2.24c0,.364.182.455.419.455.146,0,.328-.018.4-.018v1.056c-.164.018-.565.055-.856.055-1.147,0-1.311-.71-1.311-1.366v-2.4H555.4v-.819h.656V295.6H557.4v1.329h.8v.8Z" transform="translate(-527.758 -285.275)"/><path d="M574.547,304.295a1.006,1.006,0,0,0,1,1.147c.492,0,.728-.255,1.111-.8l1,.528a2.331,2.331,0,0,1-2.222,1.256,2.131,2.131,0,0,1-2.24-2.276c0-1.621.856-2.549,2.24-2.549,1.675,0,2.24,1.275,2.24,2.677C577.7,304.295,574.547,304.295,574.547,304.295Zm1.8-.838a.86.86,0,0,0-.911-.874.921.921,0,0,0-.91.874Z" transform="translate(-542.317 -290.183)"/><path d="M619.18,304.1a2.44,2.44,0,1,1-2.44-2.4A2.256,2.256,0,0,1,619.18,304.1Zm-3.533,0c0,.783.328,1.384,1.093,1.384s1.093-.6,1.093-1.42c0-.728-.328-1.329-1.093-1.329C615.975,302.72,615.647,303.321,615.647,304.1Z" transform="translate(-575.933 -290.264)"/><path d="M643.692,295.931H643v-.819h.71v-.455c0-.51.164-1.256,1.311-1.256a2.924,2.924,0,0,1,.874.109v.983h-.382c-.237,0-.455.073-.455.328v.291h.819v.819h-.819v3.66H643.71l-.018-3.66Z" transform="translate(-599.407 -283.476)"/><path d="M403.6,348.8h4.734v1.184h-1.6v4.935H405.2v-4.935h-1.6Z" transform="translate(-403.6 -328.788)"/><path d="M429.448,359.195a1.006,1.006,0,0,0,1,1.147c.492,0,.728-.255,1.111-.8l1,.528a2.331,2.331,0,0,1-2.222,1.256,2.131,2.131,0,0,1-2.24-2.276c0-1.621.856-2.549,2.24-2.549,1.675,0,2.24,1.275,2.24,2.677h-3.132Zm1.8-.819a.859.859,0,0,0-.91-.874.921.921,0,0,0-.91.874Z" transform="translate(-423.639 -335.086)"/><path d="M459.4,358.257a.979.979,0,0,0-.856-.619c-.765,0-1.038.6-1.038,1.366s.328,1.366,1.038,1.366a.908.908,0,0,0,.947-.674l.965.492a2.353,2.353,0,0,1-2.039,1.22A2.2,2.2,0,0,1,456.1,359a2.224,2.224,0,0,1,2.276-2.4,2.168,2.168,0,0,1,2.058,1.111Z" transform="translate(-446.54 -335.168)"/><path d="M484.118,348.8h1.348v1.985h.018a1.707,1.707,0,0,1,1.256-.546,1.315,1.315,0,0,1,1.439,1.475v3.223h-1.366v-2.731c0-.71-.382-.874-.674-.874-.31,0-.692.2-.692,1.056v2.568H484.1l.018-6.155Z" transform="translate(-469.441 -328.788)"/><path d="M513,356.727h1.348v.4a1.78,1.78,0,0,1,1.329-.528c1.074,0,1.384.619,1.384,1.311v3.369h-1.347v-2.859c0-.455-.146-.747-.656-.747-.546,0-.71.346-.71.765v2.841H513v-4.552Z" transform="translate(-493.079 -335.168)"/><path d="M544.88,359a2.44,2.44,0,1,1-2.44-2.4A2.256,2.256,0,0,1,544.88,359Zm-3.533,0c0,.783.328,1.366,1.093,1.366s1.093-.6,1.093-1.42c0-.728-.328-1.329-1.093-1.329C541.675,357.638,541.347,358.221,541.347,359Z" transform="translate(-515.162 -335.168)"/><path d="M571.6,354.918V348.8h1.348v6.118Z" transform="translate(-541.008 -328.788)"/><path d="M588.58,359a2.44,2.44,0,1,1-2.44-2.4A2.256,2.256,0,0,1,588.58,359Zm-3.533,0c0,.783.328,1.366,1.093,1.366s1.093-.6,1.093-1.42c0-.728-.328-1.329-1.093-1.329C585.375,357.638,585.047,358.221,585.047,359Z" transform="translate(-550.905 -335.168)"/><path d="M617.752,356.809v4.571c0,1.457-1.493,1.511-2.185,1.511-1.384,0-2.094-.473-2.112-1.584h1.384c0,.492.291.71.765.71.51,0,.838-.109.838-.765v-.528a1.91,1.91,0,0,1-1.256.382c-1.275,0-1.784-1.038-1.784-2.185,0-1.111.583-2.222,1.8-2.222a1.777,1.777,0,0,1,1.311.473v-.364Zm-2.149.856c-.419,0-.838.237-.838,1.22,0,.546.128,1.22.819,1.22.856,0,.892-.747.892-1.22C616.477,357.956,616.022,357.665,615.6,357.665Z" transform="translate(-575.197 -335.249)"/><path d="M641,362.326c.146,0,.31.018.455.018.4,0,.619-.073.619-.328a1.283,1.283,0,0,0-.128-.492L640.6,357.3H642l.747,3.5h.018l.747-3.5h1.457l-1.6,4.88c-.237.692-.528,1.22-1.311,1.22H641v-1.074Z" transform="translate(-597.444 -335.74)"/></g></g></g></svg>