<svg xmlns="http://www.w3.org/2000/svg" width="202" height="202" viewBox="0 0 202 202"><g transform="translate(-1162 -1961)"><rect width="202" height="202" transform="translate(1162 1961)" fill="#f0f6ff"/><g transform="translate(-13.775 -546.617)"><path d="M1362.716,2570.893l-.064-.03-.2-.205-.287-.114a1.433,1.433,0,0,0,.209-.663.987.987,0,0,0-.26-.678c-.078-.085-.2-.078-.3-.127l.181-.068a2.181,2.181,0,0,0,.212-.148l.066-.05.18-.237.149-.386-.041-.317-.066-.251-.092-.138-.278-.3c-.1-.069-.255-.151-.255-.151l-.113-.058-.235-.039-.228-.016-.379.1s-.212.17-.218.172-.207.01-.207.01l-.442.049c-.023,0-.7.25-.7.25l-.152.062-.518.142h-.559c-.1-.375-.221-.78-.221-.78-1.229-2.873-4.524-3.737-12.147-3.176-5.569.411-9.5,2.238-11.689,5.433-1.323,1.942.435,5.228.646,5.6l.032.053.088.166a6.6,6.6,0,0,1-1.6.722c-1.9.709-4.764,1.78-6.332,4.747-2.105,3.961-1.472,7.762,1.773,10.7,3.758,3.411,9.824,4,13.106,4.051a17.462,17.462,0,0,0,11.357-3.167c3.94-2.652,5.914-6.541,5.914-9.382a4.762,4.762,0,0,0-.241-1.575s-.037-.08-.066-.135c.182-.274.405-.617.405-.617.053-.12.168-.37.168-.37,0-.024.117-.672.117-.672,0-.044-.349-1.129-.349-1.129-.019-.03-.106-.156-.106-.156A3.119,3.119,0,0,0,1357.5,2577c.019,0,.1-.025.1-.025l.5-.214c.065-.035.644-.425.644-.425.055-.044,1.589-1.247,1.589-1.247.016-.011.6-.773.6-.773l.179-.271.3-.271.888-.865c0-.005.455-.644.455-.644.027-.053.136-.819.136-.819,0-.05-.133-.428-.133-.428Zm-25.783.225a4.3,4.3,0,0,1,1.867-3.024,14.227,14.227,0,0,1,1.821-1.015c.472-.237.971-.28,1.426-.485a2.869,2.869,0,0,1,1.031-.237,16.683,16.683,0,0,1,5.778.768c.816.219,1.608.251,2.385.525.129.05.221.126.35.179.513.2,1.03.2,1.543.439a4.352,4.352,0,0,0,1.4.351c1.341.115,2.772.025,4.128.049a3.442,3.442,0,0,0,1.371-.416,5.836,5.836,0,0,1,1.116-.131c.081-.016.122-.106.207-.212.074-.088.393.17.12.278a6.8,6.8,0,0,0-.946.336c-.842.444-2.135.9-3.022,1.343a6.047,6.047,0,0,1-1.1.191,7.725,7.725,0,0,1-4.561-.039c-.821-.315-1.564-.561-2.385-.819-.732-.239-1.347-.669-2.075-.879-.106-.03-.727-.241-.869-.262-1.028-.168-2.111-.32-3.181-.393a13.266,13.266,0,0,0-3.586,1.03c-.133.058-.315.076-.423.136-.246.12-.4.3-.667.462-.131.081-.853.752-.915.809a1.409,1.409,0,0,0-.5.674,2.49,2.49,0,0,0,.03.464.21.21,0,0,1-.286.163c-.1-.06-.039-.187-.057-.281m24.353-1.023c-.418.161-.626.593-1.06.709a.805.805,0,0,0-.292.113,12.994,12.994,0,0,0-1.93,1.447c-.584.563-1.833.683-2.587.973a8.689,8.689,0,0,1-1.456.309,6.577,6.577,0,0,1-4.964-1.083,10.472,10.472,0,0,0-4.379-1.942,3.632,3.632,0,0,0-1.99.161,1.949,1.949,0,0,0-.98,1.111c-.02.033-.216.049-.244.044-.126-.035-.131-.124-.11-.223a2.138,2.138,0,0,1,.678-1.058,5.6,5.6,0,0,1,3.638-1.094c.412.069.794.118,1.173.15a10.21,10.21,0,0,1,1.357.473,11.176,11.176,0,0,1,1.344.706,8.973,8.973,0,0,0,1.631.543,10.848,10.848,0,0,0,3.533.272c.377-.035.655-.246,1.031-.239a4.046,4.046,0,0,0,.812-.025,11.236,11.236,0,0,0,2.072-.414c.743-.29,1.513-.69,2.284-.923a.857.857,0,0,0,.453-.251c.055-.035.1.016.076.046-.126.019.028.143-.09.189m-22.055,7.974c.181.173.06.442-.127.425a.969.969,0,0,1-.826-.481c-.089-.218.3-.106.276-.269s-.285-.216-.366-.355c-.023-.157-.286-.384-.078-.522.264-.165.494.228.736.32.368.133.78,0,.986.281.035.046-.011.06.019.115.058.117.285.06.4.185.046.041.035.057.016.112-.064.251-.324.272-.58.308-.2.025-.253-.17-.414-.244-.051-.025-.089.085-.041.126m-.578-5.234c.1-.189.21-.076.37-.051l.055-.063a4.089,4.089,0,0,0,.819.016,1.918,1.918,0,0,1,.955.519,1.8,1.8,0,0,1,.083.573,1.042,1.042,0,0,1-.639.374c-.173-.285-.678-.322-.61-.74-.35-.143-.782-.2-1.017-.515-.007-.058-.007-.058-.016-.115m.446,3.908c-.089-.164-.175-.329-.007-.464a1.04,1.04,0,0,0,.575.044c.2.091.386.067.584.159.134-.366.016-.76.3-1.03.019-.067-.007-.141.025-.233.3-.37.365-.858.7-1.2a3.673,3.673,0,0,1,1.143-1.2,3.035,3.035,0,0,1,.425-.107c.1.281-.057.472-.285.617a13.041,13.041,0,0,0-1.628,3.061c-.161.195-.317.391-.479.585-.476.179-.911-.175-1.353-.237m3.42-2.822a4.9,4.9,0,0,1,1.58.1.7.7,0,0,1,.382.886,1.2,1.2,0,0,1-1.021-.112c-.01-.072-.026-.145-.035-.224-.281-.2-.642-.092-.92-.294-.076-.108.032-.237.014-.352m10.24,14.281a16.887,16.887,0,0,1-1.27,1.15c-.186.133-.349.423-.552.536a1.361,1.361,0,0,0-.28.208,9.855,9.855,0,0,1-1.85,1.11,19.62,19.62,0,0,1-4.28,1.238c-.778.073-1.507.391-2.316.464a12.185,12.185,0,0,1-2.254.051c-.585-.051-1.215-.092-1.847-.175-.276-.035-.534-.127-.847-.187a19.405,19.405,0,0,1-2.295-.7,9.454,9.454,0,0,1-3.514-2.119,8.4,8.4,0,0,1-1.256-1.3,13.132,13.132,0,0,1-.886-1.346c-.039-.076.062-.129.035-.181a4.471,4.471,0,0,1-.552-1.622,2.122,2.122,0,0,1-.023-.582c.076-.248.023-.534.081-.766a4.1,4.1,0,0,1,.152-.66,12.162,12.162,0,0,0,.566-1.3,5.457,5.457,0,0,1,1.628-2.6c.262-.232.635-.368.92-.58.37-.051.715-.264,1.15-.319a6.029,6.029,0,0,1,1.936-.069c.41.242.849.242,1.325.474a14.31,14.31,0,0,0,1.3.766,3.99,3.99,0,0,0,3.271-.817,12.172,12.172,0,0,0,3.185-3.142c.255-.441.5-.875.807-1.325l.126-.016c.239.389-.11,1.014-.372,1.331a2.844,2.844,0,0,1-.568,1.235,19.893,19.893,0,0,1-1.9,2.049c-.391.329-1.134.642-1.21.732-.708.324-1.458.359-2.174.626a1.153,1.153,0,0,1-.617.074c-.34-.113-.646-.152-.98-.281-.407-.184-.734-.527-1.113-.734a1.454,1.454,0,0,0-1.132-.035c-.35.144-.727.209-1.081.37a2.253,2.253,0,0,0-.361.106,4.261,4.261,0,0,0-1.226.616,5.376,5.376,0,0,0-1.541,2.355,5.85,5.85,0,0,0-.166,1.881,6.035,6.035,0,0,0,.529,2.33,6.777,6.777,0,0,0,3.01,3c.168.1.371.122.536.223a6.372,6.372,0,0,0,.97.58,23.628,23.628,0,0,0,4.842,1.371,13.665,13.665,0,0,0,5.09-.407,14.368,14.368,0,0,0,3.393-1.3,25.7,25.7,0,0,0,2.29-1.513,8.179,8.179,0,0,0,1.368-1.4c.035-.308-.076-.614.058-.881s.679-.37.8-.1c.173.4-.594,1.3-.909,1.573m2.388-2.633c-.359.57-1.23,1.088-1.8.578.042-.124-.089-.168-.1-.226.165-.2.5-.186.709-.32a3.022,3.022,0,0,0,1.065-1.3c.039-.182.011-.354.12-.483-.014-.058-.027-.171-.039-.226.182-.085.249-.03.338.131a2.7,2.7,0,0,1-.313,1.728.587.587,0,0,0,.019.117m3.27-6.008c-.005.005-.218.446-.244.5a9.85,9.85,0,0,1-2.8,2.8c-1.277,1.031-2.41,2.261-3.728,3.268-.6.462-1.21.826-1.833,1.222a15.906,15.906,0,0,1-5.1,2.044,13.421,13.421,0,0,1-5.01.1,7.134,7.134,0,0,1-1.249-.371,6.814,6.814,0,0,1-2.126-1.244,3.51,3.51,0,0,1-1.224-3.636c.025-.053-.042-.119-.023-.174a3.039,3.039,0,0,1,.7-1.252c.262-.234.651-.31.927-.526.186-.14.48-.051.66-.2.134.1.538-.205.854-.165.471.055.871-.184,1.306-.108a1.662,1.662,0,0,1,.925.347,1.471,1.471,0,0,1,.442,1.29,2.416,2.416,0,0,1-.982,1.461.684.684,0,0,1-.227.148c-.361.09-.8.391-1.166.206-.083-.046.35-.159.357-.161a5.666,5.666,0,0,0,.518-.3c.049-.039.081.027.122-.014a2.286,2.286,0,0,0,.8-1.442,2.138,2.138,0,0,0-.317-.9c-.1-.237-.384-.317-.686-.38a.982.982,0,0,0-.678.085c-.122.065-.143.237-.274.269a1.853,1.853,0,0,0-.957.762c-.055.065-.126.02-.179.082a2.829,2.829,0,0,0-.441,1.277c-.066.272-.074.449-.145.719a1.189,1.189,0,0,0,.159,1.088c.14.193.129.421.273.61a7.884,7.884,0,0,0,2.188,1.642,9.7,9.7,0,0,0,4.106.6,6.377,6.377,0,0,0,3.434-1.017c.543-.378,1.44-.469,2.073-.844a32.212,32.212,0,0,0,6.4-5.18c.736-.7,2.22-1.4,1.875-2.627-.237-.886-3.123-.214-3.586-.071a44.2,44.2,0,0,0-7.006,2.339,11.844,11.844,0,0,0-2.51,1.718c-.187.159-.373.216-.577.363s-.343.375-.55.536a24.992,24.992,0,0,0-2.923,2.757c-.172.175-.356.371-.55.534-.149.12-.382-.035-.285-.2a5.426,5.426,0,0,1,.893-1.217c.063-.06.126-.014.177-.083a23.9,23.9,0,0,1,6.367-5.407,9.9,9.9,0,0,1,1.821-.869c1.322-.483,2.624-1.005,3.926-1.486a10.625,10.625,0,0,1,2.85-.706c.389.05.814-.08,1.191-.035a3.087,3.087,0,0,1,.973.225,1.577,1.577,0,0,1,1.058,1.619m-6.865,3.775a13.189,13.189,0,0,1,2.908-2l.02.113c-.869.929-2.026,1.6-2.9,2.521-.308.039-.713.262-.886-.058a2.287,2.287,0,0,1,.731-1.9,8.194,8.194,0,0,1,2.355-1.925c.488-.066.892-.347,1.382-.41.018.117.186-.021.2.094.009.056.009.056.014.112-.058.009-.058.009-.12.014a1.264,1.264,0,0,1-.69.441c-.062.006-.044.035-.113.069a5.624,5.624,0,0,0-2.979,2.827c.007.055.012.111.076.1m-.027-2.327c-.037.046-.223-.024-.246.031-.041.111-.076.062-.17.138-.14.117-.434.106-.6.193a22,22,0,0,0-2,1.358c-.177.124-.409.255-.432.463-.014.08.007.112-.032.181a20.517,20.517,0,0,0-1.531,2.873c-.025.053.037.147.076.106.464-.439.665-1.106,1.235-1.438.118-.072.14.168.1.28-.179.568-.74.962-1.166,1.426-.131.135-.745.563-.842.283-.465-1.282.269-2.624.973-3.676a5.6,5.6,0,0,1,1.8-1.451c.122-.066.173-.041.3-.1.283-.127.474-.317.747-.444a6.689,6.689,0,0,1,1.392-.407c.122-.025.262-.111.377.011a.143.143,0,0,1,.025.171m-5.442,2.318c-.269.145-.529.175-.75.444-.053.065-.1.035-.177.08-.219.14-.267.384-.483.527-.076.05-.115.025-.177.083a5.422,5.422,0,0,0-1.191,1.313c-.191.342-.3.72-.472,1.046-.03.057.019.23.085.17.325-.333.568-.683.922-.991.048-.041.087.05.08.11a7.278,7.278,0,0,1-.69,1.311.27.27,0,0,0-.037.177c.018.127-.29.142-.276.266a.216.216,0,0,1-.037.182,1.059,1.059,0,0,1-.874.458c-.225-.025-.25-.195-.308-.37a3.433,3.433,0,0,1,.17-1.886,3.506,3.506,0,0,1,.766-1.2,6.542,6.542,0,0,1,3.372-1.824c.069-.006.135.076.076.108m15.8-11.512a7.015,7.015,0,0,1-1.461,1.543c-.311.288-.419.736-.74,1.008-.5.421-1.044.78-1.537,1.205a8.159,8.159,0,0,1-2.58,1.033,1.774,1.774,0,0,1-.929.1c-1.274-.209-2.657.159-4.156-.223a9.908,9.908,0,0,1-4.214-2.388c-.325-.3-.819-.565-.842-1.03.09-.079.021-.248.225-.157.439.191.72.631,1.175.8a20.123,20.123,0,0,0,4.35,1.193,12.368,12.368,0,0,0,2.293.074,22.62,22.62,0,0,0,4.345-.75,5.223,5.223,0,0,0,1.741-.771c.655-.5,1.309-1.052,2.024-1.583.113-.079.1-.294.24-.395s.1.274.066.345" transform="translate(-65.312)" fill="#ffd58e"/><g transform="translate(1225.142 2566.318)"><path d="M166.15,112.694c-.133.269-.023.573-.057.881a8.137,8.137,0,0,1-1.369,1.4,25.452,25.452,0,0,1-2.289,1.511,14.358,14.358,0,0,1-3.392,1.3,13.678,13.678,0,0,1-5.092.409,23.874,23.874,0,0,1-4.841-1.371,6.534,6.534,0,0,1-.971-.582c-.165-.1-.368-.124-.536-.223a6.792,6.792,0,0,1-3.009-3,6.1,6.1,0,0,1-.529-2.33,5.9,5.9,0,0,1,.168-1.881,5.349,5.349,0,0,1,1.541-2.355,4.2,4.2,0,0,1,1.226-.616,1.863,1.863,0,0,1,.359-.108c.356-.159.731-.226,1.081-.368a1.432,1.432,0,0,1,1.134.035c.377.205.706.548,1.115.732.329.131.639.17.978.281a1.146,1.146,0,0,0,.616-.073c.717-.267,1.467-.3,2.174-.626.078-.09.821-.405,1.21-.734a20.022,20.022,0,0,0,1.9-2.045,2.841,2.841,0,0,0,.566-1.238c.264-.317.612-.941.373-1.329l-.126.014c-.306.448-.552.883-.809,1.325a12.139,12.139,0,0,1-3.183,3.142,3.994,3.994,0,0,1-3.27.817,14.1,14.1,0,0,1-1.306-.768c-.476-.232-.916-.232-1.327-.474a6.113,6.113,0,0,0-1.934.067c-.435.058-.78.274-1.148.32-.288.212-.66.352-.922.582a5.411,5.411,0,0,0-1.626,2.6,11.941,11.941,0,0,1-.57,1.3,4.162,4.162,0,0,0-.152.662c-.058.234-.005.517-.078.766a1.976,1.976,0,0,0,.021.58,4.488,4.488,0,0,0,.55,1.622c.027.051-.073.106-.037.18a13.335,13.335,0,0,0,.888,1.348,8.3,8.3,0,0,0,1.256,1.3,9.426,9.426,0,0,0,3.514,2.12,19.323,19.323,0,0,0,2.3.7c.31.06.571.149.847.186.63.085,1.26.124,1.845.177a12.152,12.152,0,0,0,2.254-.053c.809-.071,1.537-.389,2.316-.462a19.668,19.668,0,0,0,4.28-1.238,9.984,9.984,0,0,0,1.851-1.111,1.32,1.32,0,0,1,.278-.207c.205-.115.364-.405.552-.536.488-.349.847-.784,1.274-1.15.311-.271,1.083-1.169.908-1.571-.122-.271-.678-.165-.805.1Zm3.521-9.011c-.377-.051-.8.083-1.191.034a10.6,10.6,0,0,0-2.848.706c-1.3.483-2.6,1-3.928,1.484a9.807,9.807,0,0,0-1.819.872,23.861,23.861,0,0,0-6.369,5.4c-.051.067-.113.027-.175.085a5.309,5.309,0,0,0-.893,1.215c-.1.161.136.32.285.2a7.489,7.489,0,0,0,.548-.536,25.253,25.253,0,0,1,2.923-2.756c.209-.157.345-.387.552-.534s.389-.2.575-.363a11.817,11.817,0,0,1,2.512-1.716,44.286,44.286,0,0,1,7-2.341c.465-.143,3.349-.817,3.588.073.345,1.228-1.141,1.925-1.874,2.627a32.434,32.434,0,0,1-6.4,5.178c-.633.373-1.532.464-2.074.844a6.387,6.387,0,0,1-3.436,1.016,9.681,9.681,0,0,1-4.106-.594,7.883,7.883,0,0,1-2.187-1.645c-.143-.188-.134-.412-.272-.607a1.188,1.188,0,0,1-.159-1.09c.069-.271.078-.446.145-.72a2.777,2.777,0,0,1,.441-1.274c.053-.069.124-.014.177-.083a1.851,1.851,0,0,1,.957-.763c.133-.03.154-.2.274-.267a.946.946,0,0,1,.678-.085c.3.062.586.14.688.379a2.13,2.13,0,0,1,.315.9,2.259,2.259,0,0,1-.8,1.44c-.041.041-.073-.025-.124.016a5.293,5.293,0,0,1-.517.3c-.007.005-.442.12-.357.165.368.186.8-.115,1.164-.205a.7.7,0,0,0,.226-.149,2.411,2.411,0,0,0,.982-1.463,1.469,1.469,0,0,0-.442-1.288,1.629,1.629,0,0,0-.925-.347c-.432-.076-.835.161-1.306.108-.315-.041-.718.26-.855.161-.179.152-.474.06-.66.2-.276.216-.665.292-.927.525a3.038,3.038,0,0,0-.7,1.253c-.018.053.05.117.023.172a3.516,3.516,0,0,0,1.224,3.638,6.963,6.963,0,0,0,2.127,1.246,7.328,7.328,0,0,0,1.251.368,13.4,13.4,0,0,0,5.009-.1,15.957,15.957,0,0,0,5.1-2.043c.625-.4,1.23-.763,1.835-1.224,1.316-1.008,2.449-2.236,3.728-3.268a9.87,9.87,0,0,0,2.8-2.8c.027-.05.239-.49.244-.5a1.574,1.574,0,0,0-1.058-1.619,3.074,3.074,0,0,0-.973-.225Zm-13.75,7.326a3.5,3.5,0,0,0-.934,3.089c.057.175.083.347.306.368a1.068,1.068,0,0,0,.876-.458.221.221,0,0,0,.037-.182c-.014-.124.292-.138.276-.265a.273.273,0,0,1,.035-.177,7.309,7.309,0,0,0,.688-1.309c.007-.062-.03-.15-.08-.11-.352.308-.594.656-.92.991-.065.058-.115-.113-.085-.17.17-.327.281-.7.471-1.046a5.509,5.509,0,0,1,1.192-1.315c.062-.058.1-.035.175-.083.216-.143.265-.387.483-.525.076-.051.127-.016.179-.08.221-.269.479-.3.75-.446.058-.03-.009-.115-.074-.108a6.561,6.561,0,0,0-3.376,1.826Zm8.489-4.216a6.678,6.678,0,0,0-1.391.405c-.274.129-.465.318-.747.444-.126.06-.177.035-.3.1a5.534,5.534,0,0,0-1.8,1.449c-.706,1.051-1.44,2.394-.975,3.678.1.278.713-.15.842-.283.426-.465.987-.858,1.166-1.428.039-.11.018-.352-.1-.278-.57.331-.773,1-1.235,1.437-.041.039-.1-.053-.078-.108a20.98,20.98,0,0,1,1.53-2.873c.039-.069.018-.1.034-.177.023-.211.255-.341.432-.465a22.1,22.1,0,0,1,2-1.359c.165-.085.46-.074.6-.193.1-.076.133-.025.17-.134.021-.057.209.011.246-.03a.145.145,0,0,0-.023-.173c-.115-.12-.257-.035-.379-.011Zm4.317,2.9c-.088-.163-.154-.218-.336-.131.012.055.023.166.037.226-.108.129-.081.3-.117.481a3.094,3.094,0,0,1-1.067,1.3c-.214.131-.547.122-.709.318.009.058.14.1.1.226.573.508,1.444-.011,1.8-.579a.343.343,0,0,1-.021-.119A2.684,2.684,0,0,0,168.726,109.689Zm-.985-3.319c.069-.034.053-.062.113-.069a1.282,1.282,0,0,0,.69-.441.7.7,0,0,0,.122-.014c-.007-.057-.007-.057-.016-.111-.018-.113-.186.025-.2-.094-.49.064-.893.345-1.382.409a8.166,8.166,0,0,0-2.355,1.927,2.284,2.284,0,0,0-.731,1.9c.173.32.579.1.886.057.874-.92,2.033-1.592,2.9-2.518-.009-.057-.009-.057-.019-.115a13.1,13.1,0,0,0-2.909,2c-.064.011-.071-.05-.076-.1a5.622,5.622,0,0,1,2.979-2.825Zm-14.769-2.22c.255-.035.515-.057.582-.306.018-.057.027-.071-.016-.113-.115-.124-.345-.069-.4-.184-.03-.055.014-.071-.018-.117-.207-.276-.621-.149-.985-.281-.244-.09-.474-.483-.736-.32-.211.14.053.364.078.522.081.142.341.2.364.357s-.364.051-.274.267a.962.962,0,0,0,.824.481c.189.019.31-.249.127-.425-.048-.041-.011-.15.039-.126C152.717,103.98,152.777,104.175,152.972,104.15Zm1.247-1.792a13.134,13.134,0,0,1,1.626-3.061c.228-.145.389-.336.287-.617a1.922,1.922,0,0,0-1.568,1.3c-.34.34-.405.83-.7,1.2-.034.092-.007.166-.027.234-.278.269-.159.663-.3,1.03-.2-.09-.384-.069-.584-.161a1.025,1.025,0,0,1-.575-.039c-.168.134-.08.3.007.464.441.062.876.416,1.353.237.161-.195.318-.391.479-.586ZM175.1,97.436c-.136.1-.127.313-.241.395-.715.531-1.371,1.079-2.024,1.583a5.231,5.231,0,0,1-1.741.771,22.767,22.767,0,0,1-4.345.75,11.909,11.909,0,0,1-2.293-.076,20.024,20.024,0,0,1-4.352-1.191c-.451-.165-.734-.605-1.171-.8-.209-.09-.136.078-.226.157.021.465.513.727.84,1.03a9.907,9.907,0,0,0,4.216,2.388c1.5.382,2.882.014,4.158.223a1.785,1.785,0,0,0,.927-.1,8.173,8.173,0,0,0,2.58-1.031c.494-.425,1.042-.786,1.536-1.2.32-.274.43-.722.741-1.012a7.018,7.018,0,0,0,1.461-1.543c.041-.071.064-.433-.065-.343ZM156.71,100.53c-.28-.2-.642-.092-.92-.294-.074-.106.032-.235.014-.35a4.75,4.75,0,0,1,1.58.1.7.7,0,0,1,.38.885,1.2,1.2,0,0,1-1.019-.11C156.736,100.682,156.721,100.61,156.71,100.53Zm-3.13-.363a1.032,1.032,0,0,0,.639-.372,1.8,1.8,0,0,0-.081-.573,1.911,1.911,0,0,0-.955-.518,4.1,4.1,0,0,1-.819-.019l-.055.064c-.157-.03-.271-.143-.37.051.007.055.007.055.016.113.235.32.669.372,1.017.513-.067.419.437.456.609.741Zm21.006-4.345a.864.864,0,0,1-.451.251c-.771.232-1.543.633-2.284.924a11.29,11.29,0,0,1-2.07.414,3.944,3.944,0,0,1-.816.025,9.5,9.5,0,0,0-1.03.239A10.964,10.964,0,0,1,164.4,97.4a8.941,8.941,0,0,1-1.629-.543,11.056,11.056,0,0,0-1.346-.7,10.191,10.191,0,0,0-1.355-.474c-.379-.034-.763-.08-1.173-.15a5.614,5.614,0,0,0-3.638,1.1,2.147,2.147,0,0,0-.678,1.058c-.021.1-.014.184.108.218.03.005.226,0,.244-.039a1.97,1.97,0,0,1,.982-1.111,3.693,3.693,0,0,1,1.992-.163,10.49,10.49,0,0,1,4.377,1.944,6.588,6.588,0,0,0,4.966,1.085,8.866,8.866,0,0,0,1.453-.311c.757-.288,2-.41,2.587-.975a13.238,13.238,0,0,1,1.93-1.447.929.929,0,0,1,.294-.111c.432-.117.642-.547,1.058-.709.119-.046-.034-.172.092-.191.027-.03-.021-.078-.078-.046ZM150.562,97.2a2.51,2.51,0,0,1-.03-.464,1.4,1.4,0,0,1,.5-.674c.06-.055.782-.727.913-.809.264-.157.421-.341.667-.464.106-.057.29-.076.423-.133a13.124,13.124,0,0,1,3.588-1.031c1.07.073,2.15.225,3.179.393.142.021.764.232.869.262.729.211,1.345.64,2.075.879.821.26,1.564.5,2.387.817a7.205,7.205,0,0,0,1.775.345,7.3,7.3,0,0,0,2.785-.3,5.778,5.778,0,0,0,1.1-.191c.885-.437,2.176-.9,3.018-1.343a7.113,7.113,0,0,1,.948-.336c.272-.108-.046-.366-.119-.276-.088.1-.127.2-.209.211a5.859,5.859,0,0,0-1.116.131,3.465,3.465,0,0,1-1.373.416c-1.353-.025-2.785.065-4.124-.051a4.277,4.277,0,0,1-1.4-.345c-.513-.242-1.03-.239-1.543-.441-.129-.055-.223-.131-.349-.179-.778-.274-1.569-.308-2.385-.525a16.7,16.7,0,0,0-5.78-.768,2.845,2.845,0,0,0-1.033.235c-.455.209-.952.249-1.426.487a14.582,14.582,0,0,0-1.819,1.016,4.312,4.312,0,0,0-1.867,3.025c.019.092-.041.221.058.283a.212.212,0,0,0,.285-.165Z" transform="translate(-103.741 -92.28)" fill="#3c1605"/><path d="M73.1,215.491H71.8v-6.707h4.032c1.582,0,2.728.363,2.728,2a1.9,1.9,0,0,1-1.872,1.969l2.052,2.733H77.124l-1.944-2.647H73.1Zm32.189,0h-3.285v-6.707h3.229c2.125,0,3.818.9,3.818,3.319,0,2.279-1.548,3.388-3.761,3.388Zm-6.36,0H97.539l-.7-1.539H92.978l-.711,1.539H90.874l3.3-6.707h1.491Zm-10.6,0H82.209v-6.707h6.008v1.127h-4.7v1.559h4.046v1.122H83.516v1.776h4.818Zm-22.664,0H61.385v-6.707h4.039c1.573,0,2.626.444,2.626,1.713a1.456,1.456,0,0,1-.775,1.4,1.8,1.8,0,0,1,1.037,1.651C68.311,214.811,67.307,215.491,65.67,215.491Zm-.127-1.092c.832,0,1.454-.161,1.454-.955,0-.7-.571-.922-1.454-.922H62.7V214.4Zm39.1-.032c2.233,0,3.1-.688,3.1-2.256,0-1.638-.9-2.2-3.1-2.2h-1.329v4.457Zm-8.315-1.545-1.4-2.983-1.4,2.983ZM112.6,208.3a1.886,1.886,0,1,1-1.914,1.882A1.884,1.884,0,0,1,112.6,208.3Zm-36.971,3.464c1.07,0,1.614-.157,1.614-.95s-.543-.945-1.614-.945H73.1v1.895ZM112.6,208.6a1.581,1.581,0,1,0,1.543,1.58A1.535,1.535,0,0,0,112.6,208.6Zm-47.1,2.831c.856,0,1.238-.216,1.238-.777s-.382-.787-1.238-.787H62.7v1.564Zm46.7-.163h-.334V209.1h.835c.517,0,.77.195.77.616a.561.561,0,0,1-.57.6l.625.955h-.368l-.582-.945H112.2Zm0-1.215h.395c.41,0,.543-.117.543-.356,0-.211-.1-.327-.483-.327H112.2ZM45.644,196.979c-.225-.609-.395-1.231-.571-1.854a15.827,15.827,0,0,1-.566-2.764c-.018-.205-.034-.212.152-.283.088-.035.175-.069.265-.1.182-.071.354-.159.541-.225A43.393,43.393,0,0,0,55.2,187.24c3.031-2.1,3.278-4,3.089-4.731a2.64,2.64,0,0,0-1.212-1.679c-4.145-2.229-13.626-2.978-19.07-2.295a16.336,16.336,0,0,0-3.429.7c-1.249.442-2.038,1.355-1.852,2.289a4.269,4.269,0,0,0,2.606,3.093,1.79,1.79,0,0,0,1.684-.016,9.135,9.135,0,0,1,1.729-1.024,9.02,9.02,0,0,1,2.537-.541,30.849,30.849,0,0,1-.642,4.1c-.152.885-.292,1.78-.474,2.663-.354,1.663-.849,8.3-.145,9.665a4.628,4.628,0,0,0,2.636,2.5,3.98,3.98,0,0,0,2.012.218,2.307,2.307,0,0,0,1.53-.736c.616-.826.267-2.066-.012-2.953-.161-.511-.357-1.014-.547-1.513Zm73.88-8.11c.534.051.833-.364.754-.888a1.773,1.773,0,0,0-1.355-1.265c-2.879-.621-6.008.732-8.124,2.622a3.445,3.445,0,0,0-.688-1.537,4.937,4.937,0,0,0-1.2-1.414c-.159-.12-.419-.239-.5.025a2.908,2.908,0,0,0-.025.867c0,.442-.014.892-.044,1.33a22.611,22.611,0,0,1-.72,4.557c-.3,1.081-.69,2.134-.985,3.215a8.908,8.908,0,0,0-.428,3.385,2.511,2.511,0,0,0,1.7,2.2,1.77,1.77,0,0,0,2.2-.886,8.764,8.764,0,0,0,.943-2.811c.184-.885.251-1.755.372-2.645a7.793,7.793,0,0,1,1.49-3.885,9.86,9.86,0,0,1,3.185-2.779,3.2,3.2,0,0,1,1.893-.478c.517.1,1,.345,1.527.393Zm-35.034-1.233c-2.909.409-5.331,2.852-6.863,5.24a10.21,10.21,0,0,1-.007-1.629,5.488,5.488,0,0,0-.341-1.681A2.8,2.8,0,0,0,76.1,188.34a11.4,11.4,0,0,0-2.622-1.093,3.621,3.621,0,0,0-1.364-.182c-.191.021-.729.182-.557.469a2.8,2.8,0,0,0,1.083.77,8.519,8.519,0,0,1,1.109.64,1.278,1.278,0,0,1,.416,1.35,10.7,10.7,0,0,1-.694,2.624,19.7,19.7,0,0,0-1.414,4.706,5.676,5.676,0,0,0,.2,2.364c.184.564.428,1.044,1.056,1.166a2.215,2.215,0,0,0,2.528-.993c.589-1.008.975-2.652,1.467-3.7.416-.879.879-1.932,1.35-2.778a19.534,19.534,0,0,1,2.02-2.571,7.765,7.765,0,0,1,1.9-1.491c.283-.088.478-.062.327.361-.179.515-2.022,5.194-1.329,7.96.656,2.6,3.144,3.349,3.857,3.63.182.081.524.191.656-.035.2-.336-.028-.938-.179-1.233-.775-1.506-1.108-3.464-.384-6.659.157-.7.517-1.98.72-2.84a3.908,3.908,0,0,0-.007-2.4,1.475,1.475,0,0,0-1.755-.766ZM68.264,198.087a4.291,4.291,0,0,1-.115-2.043c.115-.784.373-1.532.548-2.3a2.666,2.666,0,0,0-.122-1.916,2.411,2.411,0,0,0-3.07-1.214,2.67,2.67,0,0,0-1.24,1.283,8.362,8.362,0,0,1-.747,1.468,8.6,8.6,0,0,1-1.281,1.134c-.506.442-1,.886-1.5,1.33a23.363,23.363,0,0,1-3.383,2.606,5.829,5.829,0,0,1-3.553,1.024,4.986,4.986,0,0,1,.915-1.867,17.922,17.922,0,0,1,1.491-1.939,23.053,23.053,0,0,1,3.839-3.123,16.115,16.115,0,0,1,3.816-2.243c.87-.32,1.851-.777,1.507-1.886-.347-1.088-1.782-1.062-2.7-.961a14.586,14.586,0,0,0-3.073.755,11.968,11.968,0,0,0-6.07,4.416,11.18,11.18,0,0,0-1.983,3.942,4.277,4.277,0,0,0,.428,3.344,2.907,2.907,0,0,0,2.866,1.169,8.079,8.079,0,0,0,2.258-.709,18.778,18.778,0,0,0,2.275-1.2,47.01,47.01,0,0,0,4.184-3c-.147,1.4,1.067,2.8,2.012,3.673.92.856,2.357,1.943,3.706,1.743.727-.294-.211-1.858-.4-2.242a12.8,12.8,0,0,1-.609-1.242Zm36.448-4.05a4.189,4.189,0,0,0-1.325.359c-1.495.559-2.94,1.23-4.437,1.778a11.326,11.326,0,0,1-4.588.989,2.291,2.291,0,0,1-1.522-.633,2.563,2.563,0,0,1-.564-1.812,19.75,19.75,0,0,0,8.163-1.129,6.245,6.245,0,0,0,2.741-1.764,3.092,3.092,0,0,0,.75-1.686,2.4,2.4,0,0,0-.711-1.8c-.966-1.182-2.723-1.136-4.082-.888a14.9,14.9,0,0,0-4.683,1.767,14.508,14.508,0,0,0-3.411,2.733,9.4,9.4,0,0,0-2.341,3.837,5.055,5.055,0,0,0,.244,3.441,3.98,3.98,0,0,0,2.8,2.128,8.916,8.916,0,0,0,4.743-.534,25.718,25.718,0,0,0,3.57-1.617,23.61,23.61,0,0,0,2.857-1.767,5.4,5.4,0,0,0,2.065-2.358C105.1,194.743,105.242,194.027,104.711,194.037Zm30.565,6.242a4.5,4.5,0,0,1-1.007-2.732,10.66,10.66,0,0,1,.074-2.569c.2-1.346.754-3.3-.529-4.269a4,4,0,0,0-.86-.472,1.788,1.788,0,0,0-.771-.223,2.153,2.153,0,0,0-1.343.867,8.115,8.115,0,0,0-.931,1.325,11.6,11.6,0,0,1-1.371,1.865,21.622,21.622,0,0,1-3.712,3.124c-.663.471-1.338.936-2.026,1.373a5.281,5.281,0,0,1-2.236.925c-1.265.134-.412-1.582-.115-2.107a18.48,18.48,0,0,1,2.718-3.538,11.812,11.812,0,0,1,7.579-4.027c.389-.476.87-1.267.285-1.78a3.148,3.148,0,0,0-1.9-.534,11.057,11.057,0,0,0-6.758,2.086,11.612,11.612,0,0,0-3.075,3.063,11.248,11.248,0,0,0-1.4,3.425c-.322,1.214-.63,2.763.1,3.9a3.06,3.06,0,0,0,3.471,1.138,10.179,10.179,0,0,0,2.127-.892c.771-.387,1.516-.823,2.252-1.279,1.444-.9,2.824-1.9,4.175-2.928.824,1.6,1.246,3.549,2.79,4.727a3.034,3.034,0,0,0,2.6.483c.14-.019.764-.2.488-.432A7.924,7.924,0,0,1,135.276,200.279Zm-41.2-8.554a10.658,10.658,0,0,1,2.433-1.364,6.889,6.889,0,0,1,3.806-.26c.326.071,1.905.541,1.247,1.123-1.7,1.506-6.29,2.572-8.643,2.063C92.675,192.693,93.708,192,94.075,191.725Zm-50.33-5.845c-.062-.69-.133-1.376-.182-2.065-.019-.235-.078-1.063.182-1.106,3.949-.593,10.27-.78,11.4.356.425.421-.472,1.895-1.608,2.887a27.65,27.65,0,0,1-9.225,4.791c-.29-1.608-.432-3.236-.568-4.864Z" transform="translate(-32.702 -148.163)" fill="#606b21"/></g></g></g></svg>