<svg xmlns="http://www.w3.org/2000/svg" xmlns:xlink="http://www.w3.org/1999/xlink" width="202" height="202" viewBox="0 0 202 202"><defs><clipPath id="a"><path d="M0-2712.128H163.81v-24.8H0Z" transform="translate(0 2736.929)"/></clipPath></defs><g transform="translate(-334 -1961)"><rect width="202" height="202" transform="translate(334 1961)" fill="#f0f6ff"/><g transform="translate(331.296 1575.22)"><g transform="translate(21.799 474.216)"><g transform="translate(0.301 0)"><path d="M0-87.089H142.583l14.291-24.759H0Z" transform="translate(0 111.848)" fill="#ffd20a"/></g><g transform="translate(0 0.327)"><g transform="translate(0 0)" clip-path="url(#a)"><g transform="translate(20.175 6.463)"><path d="M-25.591-7.658A3.173,3.173,0,0,0-27.61-8.3c-.826,0-1.522.524-1.522,1.153,0,.367.222.668.841.879l1.049.355c1.179.392,1.794,1.022,1.794,2.056,0,1.982-1.691,3.607-4.418,3.607a5.377,5.377,0,0,1-3-.826l.969-1.4a4.364,4.364,0,0,0,2.359.708c1.157,0,1.9-.6,1.9-1.508,0-.46-.315-.762-.97-.983l-.957-.328c-1.034-.353-1.665-.853-1.665-1.915a3.638,3.638,0,0,1,3.892-3.33,4.46,4.46,0,0,1,2.848.917Z" transform="translate(32.867 9.835)"/></g><g transform="translate(28.579 7.105)"><path d="M-13.283-11.394H-14.45l-.708,3.37a2.621,2.621,0,0,0-.067.591c0,.366.2.485.592.485a2.171,2.171,0,0,0,.654-.132v1.063a4.283,4.283,0,0,1-1.493.288c-1.01,0-1.587-.5-1.587-1.154a4.356,4.356,0,0,1,.093-.866l.772-3.645h-.668L-16.6-12.6h.671a9.933,9.933,0,0,1,.406-1.587l1.849-.446c-.2.617-.393,1.352-.539,2.032h1.562Z" transform="translate(17.06 14.633)"/></g><g transform="translate(32.764 9.007)"><path d="M-13.557-4.8a1.344,1.344,0,0,0-1.232.578,5.113,5.113,0,0,0-.827,2.871c0,.6.158.865.539.865a1.645,1.645,0,0,0,1.3-1.047l.694-3.162a1.157,1.157,0,0,0-.473-.1m2.034.748L-12.061-1.5a1.347,1.347,0,0,0,.247,1.313L-13.268.895a1.284,1.284,0,0,1-.511-.826,2.322,2.322,0,0,1-1.785.8c-1.22,0-1.848-.748-1.848-2.138A5.568,5.568,0,0,1-16-5.111a3.5,3.5,0,0,1,2.675-1.048,4.778,4.778,0,0,1,2.23.458,14.645,14.645,0,0,0-.432,1.654" transform="translate(17.411 6.159)"/></g><g transform="translate(39.529 8.914)"><path d="M-9.091,0A2.684,2.684,0,0,1-8.92,1.089,2.973,2.973,0,0,1-6.654.08,1.234,1.234,0,0,1-5.3,1.4a4.838,4.838,0,0,1-.1.945l-.97,4.588H-8.108l.933-4.367a3.751,3.751,0,0,0,.089-.6c0-.329-.143-.42-.459-.42-.419,0-.916.262-1.467,1.009l-.933,4.38h-1.731l.957-4.523a3.483,3.483,0,0,0,0-1.771Z" transform="translate(11.676)"/></g><g transform="translate(46.664 6.069)"><path d="M-11.07-7.333l-1.063,4.969a7.668,7.668,0,0,0-.222,1.3c0,.248.1.381.341.381a.484.484,0,0,0,.2-.027l.08,1.05a3.226,3.226,0,0,1-1.089.184c-.943,0-1.39-.511-1.39-1.206a7.706,7.706,0,0,1,.2-1.22l1.06-5.01a4.445,4.445,0,0,0,.16-1.94l1.862-.564a6.927,6.927,0,0,1-.131,2.085" transform="translate(14.217 9.418)"/></g><g transform="translate(50.193 8.995)"><path d="M-9.449-10.231c.762,0,1.639-.261,1.639-.93a.62.62,0,0,0-.707-.694c-.67,0-1.17.393-1.431,1.559a2.413,2.413,0,0,0,.5.065m2.582,3.215A4.639,4.639,0,0,1-9.594-6.1a2.26,2.26,0,0,1-2.542-2.464,5.349,5.349,0,0,1,1.508-3.687,3.123,3.123,0,0,1,2.308-.889c1.322,0,2.279.524,2.279,1.835C-6.04-10.034-7.208-9-9.435-9a3.381,3.381,0,0,1-.8-.093s-.065.434-.065.6c0,.761.394,1.074,1.129,1.074a3.315,3.315,0,0,0,1.861-.706Z" transform="translate(12.135 13.14)"/></g><g transform="translate(56.067 9.033)"><path d="M-10.192,0l.329,3.922c.025.4.052,1.389.052,1.389s.459-1.167.9-2.006L-7.216.1h1.887l-3.892,6.82A5.664,5.664,0,0,1-10.98,9.139a4.237,4.237,0,0,1-1.757.615l-.353-1.179a4.354,4.354,0,0,0,1.18-.419,3.114,3.114,0,0,0,1.166-1.337h-.484c-.027-.5-.091-1.312-.172-1.889L-12,.21Z" transform="translate(13.09)"/></g><g transform="translate(63.483 6.738)"><path d="M-10.514-12.828h1.075a1.46,1.46,0,0,0,.96-.264,1.3,1.3,0,0,0,.551-1.022c0-.565-.251-.8-1.009-.8h-1.141Zm-.837,3.973h1.193a1.688,1.688,0,0,0,.943-.265A1.72,1.72,0,0,0-8.52-10.47c0-.641-.353-.851-1.166-.851h-1.142Zm3.028-7.62c1.379,0,2.372.656,2.372,1.967A2.437,2.437,0,0,1-7.862-12.2,1.751,1.751,0,0,1-6.5-10.43a3.191,3.191,0,0,1-.853,2.1,3.519,3.519,0,0,1-2.845.969H-13.5l1.942-9.113Z" transform="translate(13.503 16.475)"/></g><g transform="translate(71.509 6.069)"><path d="M-11.07-7.333l-1.062,4.969a7.666,7.666,0,0,0-.223,1.3c0,.248.106.381.342.381a.5.5,0,0,0,.2-.027l.079,1.05a3.232,3.232,0,0,1-1.091.184c-.942,0-1.388-.511-1.388-1.206a7.758,7.758,0,0,1,.2-1.22l1.064-5.01a4.4,4.4,0,0,0,.157-1.94l1.862-.564a7,7,0,0,1-.13,2.085" transform="translate(14.217 9.418)"/></g><g transform="translate(75.233 9.007)"><path d="M-13.566-4.8a1.349,1.349,0,0,0-1.235.578,5.123,5.123,0,0,0-.824,2.871c0,.6.157.865.537.865a1.641,1.641,0,0,0,1.3-1.047l.7-3.162a1.159,1.159,0,0,0-.471-.1m2.032.748-.54,2.543a1.345,1.345,0,0,0,.252,1.313L-13.279.895A1.3,1.3,0,0,1-13.79.068a2.315,2.315,0,0,1-1.782.8c-1.22,0-1.85-.748-1.85-2.138A5.569,5.569,0,0,1-16-5.111,3.489,3.489,0,0,1-13.33-6.159,4.778,4.778,0,0,1-11.1-5.7a14.472,14.472,0,0,0-.433,1.654" transform="translate(17.422 6.159)"/></g><g transform="translate(82.068 8.941)"><path d="M-16.413-6.691a1.38,1.38,0,0,0-1-.5,1.076,1.076,0,0,0-.827.394,5.414,5.414,0,0,0-.93,2.976c0,.7.327,1,.8,1A2.5,2.5,0,0,0-16.9-3.493l.59,1.09a3.835,3.835,0,0,1-2.466.891,2.1,2.1,0,0,1-2.3-2.307,5.389,5.389,0,0,1,1.7-3.973,3.191,3.191,0,0,1,2.2-.8,2.391,2.391,0,0,1,1.781.8Z" transform="translate(21.08 8.593)"/></g><g transform="translate(87.719 6.069)"><path d="M-24.809-10.79l-2.74,2.912,1.81,3.8H-27.81l-1.443-3.8,2.269-2.912Zm-3.527-3.068a6.583,6.583,0,0,1-.222,2.531l-1.547,7.251h-1.757l1.576-7.37a4.459,4.459,0,0,0,.13-1.848l1.82-.564Z" transform="translate(31.862 13.858)"/></g><g transform="translate(94.59 7.118)"><path d="M-17.752-6.551a.616.616,0,0,0-.655-.644,1.076,1.076,0,0,0-1.062,1.077,1.631,1.631,0,0,0,.523,1.048,1.712,1.712,0,0,0,1.193-1.481M-20.87-1.738c0,.6.445.957,1.231.957a2.269,2.269,0,0,0,1.492-.47l-1.7-2.048A1.745,1.745,0,0,0-20.87-1.738m5.846-2.4a6.733,6.733,0,0,1-.995,2.57L-14.512.32h-2.319l-.447-.578A4.363,4.363,0,0,1-19.968.5C-21.788.5-22.8-.4-22.8-1.6a3.034,3.034,0,0,1,2.206-2.673,1.837,1.837,0,0,1-.685-1.509,2.88,2.88,0,0,1,3.12-2.635c1.352,0,2.2.668,2.2,1.626,0,1.009-.368,1.77-2.022,2.531l-.171.079,1.208,1.456a4.484,4.484,0,0,0,.447-1.417Z" transform="translate(22.799 8.413)"/></g><g transform="translate(103.741 6.738)"><path d="M-7.711-26.8h.9A2.009,2.009,0,0,0-5.1-27.748a7.831,7.831,0,0,0,.984-3.591c0-.839-.238-1.639-1.455-1.639H-6.4Zm1.85-7.62c1.519,0,2.453.17,3.026.892a3.257,3.257,0,0,1,.694,2.216A7.206,7.206,0,0,1-3.8-26.671c-.96,1.011-1.876,1.364-3.883,1.364H-9.9l1.94-9.114h2.1Z" transform="translate(9.903 34.421)"/></g><g transform="translate(111.965 8.995)"><path d="M-9.457-10.231c.761,0,1.639-.261,1.639-.93a.619.619,0,0,0-.706-.694c-.671,0-1.167.393-1.433,1.559a2.465,2.465,0,0,0,.5.065m2.581,3.215A4.631,4.631,0,0,1-9.6-6.1a2.263,2.263,0,0,1-2.545-2.464,5.355,5.355,0,0,1,1.51-3.687,3.128,3.128,0,0,1,2.307-.889c1.323,0,2.28.524,2.28,1.835C-6.049-10.034-7.214-9-9.445-9a3.344,3.344,0,0,1-.8-.093s-.065.434-.065.6c0,.761.392,1.074,1.127,1.074a3.3,3.3,0,0,0,1.86-.706Z" transform="translate(12.146 13.14)"/></g><g transform="translate(118.652 8.941)"><path d="M-16.427-6.691a1.383,1.383,0,0,0-1-.5,1.069,1.069,0,0,0-.825.394,5.4,5.4,0,0,0-.933,2.976c0,.7.326,1,.8,1a2.51,2.51,0,0,0,1.471-.669l.589,1.09a3.834,3.834,0,0,1-2.465.891A2.1,2.1,0,0,1-21.1-3.819,5.383,5.383,0,0,1-19.39-7.793a3.193,3.193,0,0,1,2.2-.8,2.4,2.4,0,0,1,1.783.8Z" transform="translate(21.098 8.593)"/></g><g transform="translate(124.306 6.069)"><path d="M-24.809-10.79l-2.737,2.912,1.81,3.8h-2.073l-1.444-3.8,2.271-2.912Zm-3.526-3.068a6.5,6.5,0,0,1-.223,2.531l-1.548,7.251h-1.756l1.573-7.37a4.4,4.4,0,0,0,.132-1.848l1.822-.564Z" transform="translate(31.862 13.858)"/></g><g transform="translate(131.162 8.995)"><path d="M-9.463-10.231c.76,0,1.64-.261,1.64-.93a.621.621,0,0,0-.71-.694c-.667,0-1.165.393-1.429,1.559a2.444,2.444,0,0,0,.5.065M-6.88-7.017A4.639,4.639,0,0,1-9.606-6.1a2.263,2.263,0,0,1-2.547-2.464,5.358,5.358,0,0,1,1.51-3.687,3.139,3.139,0,0,1,2.311-.889c1.324,0,2.277.524,2.277,1.835C-6.056-10.034-7.221-9-9.451-9a3.347,3.347,0,0,1-.8-.093s-.065.434-.065.6c0,.761.393,1.074,1.127,1.074a3.309,3.309,0,0,0,1.863-.706Z" transform="translate(12.153 13.14)"/></g><g transform="translate(137.643 8.914)"><path d="M-9.13,0a2.241,2.241,0,0,1,.158,1.089A2.8,2.8,0,0,1-7.1.067a1.114,1.114,0,0,1,.6.144l-.76,1.547a.969.969,0,0,0-.512-.131c-.34,0-.722.2-1.271.918l-.932,4.393h-1.758l.944-4.433A3.709,3.709,0,0,0-10.756.643Z" transform="translate(11.726)"/></g></g></g></g></g></g></svg>