<svg xmlns="http://www.w3.org/2000/svg" width="202" height="202" viewBox="0 0 202 202"><g transform="translate(-748 -1754)"><rect width="202" height="202" transform="translate(748 1754)" fill="#f0f6ff"/><g transform="translate(780.977 1840.04)"><path d="M21.4,56.443c-1.055,1.309-1.548,2.611-1.208,3.189.046.078.127.227.181.33a1.533,1.533,0,0,0,2.645-.2,2.4,2.4,0,0,0-.178-1.829,3.391,3.391,0,0,1-.231-.413,2.447,2.447,0,0,0-.324-.506.4.4,0,0,1-.129-.19.971.971,0,0,0-.227-.3,1.071,1.071,0,0,1-.227-.291c0-.113-.089-.05-.3.214" transform="translate(-13.268 -37.055)" fill="#5484bc" fill-rule="evenodd"/><path d="M8.035,13.1a1.417,1.417,0,0,0-.689.515c-.028.072-.05,1.482-.05,3.133v3h.965a6.506,6.506,0,0,1,1.063.052,3.479,3.479,0,0,0,.64.116,7.659,7.659,0,0,1,1.557.341c.062.031.367.146.678.257a3.9,3.9,0,0,1,.6.244,3.484,3.484,0,0,0,.484.261,2.972,2.972,0,0,1,.486.267,2.115,2.115,0,0,0,.34.235,4.5,4.5,0,0,1,.763.565,1.1,1.1,0,0,0,.212.156,11.912,11.912,0,0,1,1.861,2.136c.069.135.147.246.172.246a1.715,1.715,0,0,1,.256.44,2.569,2.569,0,0,0,.251.456,2.845,2.845,0,0,1,.228.539,3.341,3.341,0,0,0,.23.552,8.757,8.757,0,0,1,.4,1.614,1.547,1.547,0,0,0,.125.492,10.615,10.615,0,0,1,0,2.3.463.463,0,0,0-.085.267l-.02.227H26.99l.068-.232a4.8,4.8,0,0,1,.211-.539c.078-.169.19-.419.248-.556a1.5,1.5,0,0,1,.166-.312,3.689,3.689,0,0,0,.251-.375A8.406,8.406,0,0,1,29.8,27.593a2.97,2.97,0,0,0,.354-.248,4.35,4.35,0,0,1,.844-.4.058.058,0,0,0,.063-.05,4.427,4.427,0,0,1,1.446-.434,1.092,1.092,0,0,0,.357-.1,5.865,5.865,0,0,1,1.6-.013,13.108,13.108,0,0,0,1.508.347l.175.033.038-3.649c.026-2.477.019-3.768-.022-4.018a3.937,3.937,0,0,0-.372-1.217.275.275,0,0,1-.079-.116,3.8,3.8,0,0,0-1.476-1.5.052.052,0,0,1-.055-.048c0-.266-2.477-.632-2.748-.407-.077.063-.087.576-.087,4.318v4.246H30.263V15.852l-.128-.068c-.1-.052-2.255-.064-9.286-.051l-9.158.016-.454.13a3.6,3.6,0,0,0-.737.3c-.156.1-.362.22-.457.274a3.4,3.4,0,0,0-.482.394l-.308.3L9.225,15.39c-.032-1.973-.008-1.866-.482-2.138a1.041,1.041,0,0,0-.707-.157m43.349,3.74a5.945,5.945,0,0,0-1.729.369.054.054,0,0,1-.06.046,4.791,4.791,0,0,0-1.018.462c0,.026-.1.1-.214.155a3.492,3.492,0,0,0-.6.5,3.033,3.033,0,0,0-.744.9,2.243,2.243,0,0,1-.193.312,4.188,4.188,0,0,0-.44,2.32,3.447,3.447,0,0,0,.552,2.047c.092.141.185.293.207.34a6.08,6.08,0,0,0,1.533,1.4,2.651,2.651,0,0,1,.344.228,3.013,3.013,0,0,0,.454.256,3.165,3.165,0,0,1,.449.25,3.369,3.369,0,0,0,.539.253,3.264,3.264,0,0,1,.538.254.805.805,0,0,0,.227.125,2.571,2.571,0,0,1,.7.3,2.666,2.666,0,0,0,.5.253,2.917,2.917,0,0,1,.514.263,1.548,1.548,0,0,0,.312.211,1.743,1.743,0,0,1,.17,3.128,1.567,1.567,0,0,0-.308.185,4.232,4.232,0,0,1-2.484-.012.425.425,0,0,0-.2-.1,4.938,4.938,0,0,1-.934-.41.753.753,0,0,0-.177-.115,3.621,3.621,0,0,1-.425-.3c-.153-.121-.38-.289-.5-.372a1.086,1.086,0,0,1-.246-.2c-.07-.178-.474-.039-.762.261a4.56,4.56,0,0,0-.608.693,1.031,1.031,0,0,1-.156.215c-.676.8-.658.876.421,1.839a4.059,4.059,0,0,0,.5.339,4.125,4.125,0,0,1,.408.264,3.405,3.405,0,0,0,.51.254,3.134,3.134,0,0,1,.475.234,8.542,8.542,0,0,0,1.53.416,1.175,1.175,0,0,1,.387.1,9.545,9.545,0,0,0,2.177,0,2.792,2.792,0,0,1,.5-.13,5.235,5.235,0,0,0,1.258-.386,1.837,1.837,0,0,1,.388-.221,3.359,3.359,0,0,0,1.064-.81,4.224,4.224,0,0,0,1.089-1.672,1.334,1.334,0,0,1,.122-.291,5.89,5.89,0,0,0,0-3.047,3.917,3.917,0,0,1-.2-.461,2.815,2.815,0,0,0-.28-.558A6.39,6.39,0,0,0,56.149,26c-.078-.056-.249-.2-.381-.315a1.074,1.074,0,0,0-.3-.213.665.665,0,0,1-.232-.156,2.685,2.685,0,0,0-.537-.326,2.56,2.56,0,0,1-.4-.21,2.131,2.131,0,0,0-.368-.189c-.186-.082-.466-.213-.622-.292s-.487-.218-.736-.31a2.42,2.42,0,0,1-.482-.215,2.585,2.585,0,0,0-.5-.228,3.025,3.025,0,0,1-.539-.249,2.8,2.8,0,0,0-.352-.232c-1.627-.945-1.3-2.813.545-3.153a2.574,2.574,0,0,0,.458-.117c.126-.065.667-.066.667,0,0,.027.14.065.311.085.932.11,1.561.636,1.561,1.307,0,.581.334.728,1.6.7l.939-.018.2-.21.2-.21v-.876c0-.856-.131-1.625-.276-1.625-.025,0-.081-.07-.124-.156a4.048,4.048,0,0,0-.832-.865.572.572,0,0,1-.207-.14,3.811,3.811,0,0,0-.981-.484.9.9,0,0,1-.217-.089,8.029,8.029,0,0,0-3.176-.383m78.5.407-.189.169-.018.989-.018.988.15.179a.485.485,0,0,0,.259.179c.06,0,.109.026.109.056s.209.057.514.057c.524,0,.733.056.733.2a.106.106,0,0,0,.058.1,7.449,7.449,0,0,1,.043,1.465c-.015,1.421-.017,1.442-.116,1.261a1.076,1.076,0,0,0-.317-.321,2.273,2.273,0,0,1-.3-.219c-.619-.619-3.629-1.007-4.273-.552a1.873,1.873,0,0,1-.34.116,3.559,3.559,0,0,0-.981.433,1.269,1.269,0,0,1-.27.166,6.071,6.071,0,0,0-1.3,1.266,3.144,3.144,0,0,1-.263.365.416.416,0,0,0-.107.162,4.435,4.435,0,0,1-.222.514,5.541,5.541,0,0,0-.549,1.928,1.171,1.171,0,0,1-.088.414,8.351,8.351,0,0,0,.008,1.867.32.32,0,0,1,.057.216,6.417,6.417,0,0,0,.57,2.179,4.433,4.433,0,0,1,.224.514.416.416,0,0,0,.107.162,3.031,3.031,0,0,1,.258.355,7.82,7.82,0,0,0,1.024,1.086,2.878,2.878,0,0,0,.4.256,2.232,2.232,0,0,1,.312.192,3.563,3.563,0,0,0,1.021.371,4.009,4.009,0,0,1,.556.159,7.62,7.62,0,0,0,1.873.005,1.242,1.242,0,0,1,.405-.128,2.978,2.978,0,0,0,1.142-.456.431.431,0,0,1,.21-.119,3.266,3.266,0,0,0,.613-.54l.531-.539v.323c0,.365.17.787.339.84a.232.232,0,0,1,.135.113c.075.2.572.256,2.093.256h1.468l.166-.166.166-.166V32.877c0-1.153-.036-1.28-.362-1.28a1.072,1.072,0,0,1-.848-.414l-.151-.232V25.075c0-5.607-.021-6.473-.163-6.577a1.237,1.237,0,0,1-.143-.266,2.348,2.348,0,0,0-.971-.939l-.339-.177-1.512-.021-1.512-.021-.189.168M28.106,21.106v3.119H20.449l-.127-.269a1.909,1.909,0,0,0-.161-.3,3.371,3.371,0,0,1-.219-.369,2.1,2.1,0,0,0-.264-.4c-.043-.034-.079-.077-.079-.094a4.325,4.325,0,0,0-.509-.73,2.152,2.152,0,0,1-.221-.282A6.4,6.4,0,0,0,18,20.836,11.72,11.72,0,0,0,15.5,18.865a.568.568,0,0,1-.213-.148,1.994,1.994,0,0,0-.44-.254,3.291,3.291,0,0,1-.471-.259.881.881,0,0,0-.255-.126c-.2-.072.612-.083,6.879-.086l7.1,0v3.119m6.238,0v3.119H33.209V17.988h1.134v3.119m26.108-2.5c-.269.109-.307.336-.307,1.867V21.9h-.569c-1,0-1.075.085-1.075,1.281s.065,1.271.966,1.271h.622v2.86c0,1.7.024,3.039.06,3.3a4.51,4.51,0,0,0,.272,1.152,3.744,3.744,0,0,1,.253.468,1.539,1.539,0,0,0,.267.44c.029,0,.114.1.188.214a1.5,1.5,0,0,0,.4.38.906.906,0,0,1,.263.209,3.6,3.6,0,0,0,.885.445.1.1,0,0,1,.088.056,6.7,6.7,0,0,0,2.62.389c.867-.028.853-.008.876-1.224.029-1.5.047-1.471-.851-1.576a2.3,2.3,0,0,1-1.644-.736c-.09-.125-.195-.265-.233-.312-.216-.263-.232-.47-.252-3.3l-.02-2.764h1.208a10.451,10.451,0,0,0,1.266-.043c.322-.232.367-.385.367-1.216,0-1.287-.006-1.293-1.641-1.293H63.263V20.447c0-2.021.109-1.892-1.588-1.888a9.375,9.375,0,0,0-1.224.051M73.272,21.6a6.5,6.5,0,0,0-1.26.183c-.055.029-.361.133-.679.229a3.222,3.222,0,0,0-.652.249.561.561,0,0,1-.163.107,4.013,4.013,0,0,0-.812.548.365.365,0,0,1-.167.12,3.945,3.945,0,0,0-.822.879,4.308,4.308,0,0,1-.271.355,7.384,7.384,0,0,0-.765,1.749c-.069.278-.147.556-.174.618a8.91,8.91,0,0,0,.005,2.832.825.825,0,0,1,.087.259,7.1,7.1,0,0,0,.362,1.134,3.453,3.453,0,0,1,.234.444,2.3,2.3,0,0,0,.256.454,1.4,1.4,0,0,1,.206.265,5.082,5.082,0,0,0,1.089,1.131c.193.141.389.292.435.335a6.725,6.725,0,0,0,2.41.918,1.074,1.074,0,0,1,.357.1,9.418,9.418,0,0,0,2.12,0,1.068,1.068,0,0,1,.359-.1,6.537,6.537,0,0,0,1.5-.412c.171-.081.471-.218.666-.306a.973.973,0,0,0,.355-.215c0-.03.057-.073.128-.095.666-.208,1.061-1.177.568-1.395a2.137,2.137,0,0,1-.242-.4c-.394-.756-.907-1.063-1.231-.736a2.616,2.616,0,0,1-.5.293,2.7,2.7,0,0,0-.426.233,4.727,4.727,0,0,1-1.738.425,4.3,4.3,0,0,1-2.117-.423,1.544,1.544,0,0,0-.256-.176,3.006,3.006,0,0,1-.9-.936,2.168,2.168,0,0,0-.2-.312,3.664,3.664,0,0,1-.312-.977l-.04-.268,4.052-.016c4.486-.017,4.154.013,4.356-.4a3.688,3.688,0,0,0,.059-1.554,3.192,3.192,0,0,1-.113-.58,5.417,5.417,0,0,0-.407-1.476,1.609,1.609,0,0,1-.192-.356,5.012,5.012,0,0,0-1.567-1.8,2.46,2.46,0,0,1-.34-.241,4.114,4.114,0,0,0-.951-.382.757.757,0,0,1-.257-.086,6.24,6.24,0,0,0-2.048-.216m30.991.086a1.986,1.986,0,0,0-.482.1.836.836,0,0,1-.257.085,3.784,3.784,0,0,0-1.114.4.262.262,0,0,1-.166.109,2.1,2.1,0,0,0-.844.915,1.041,1.041,0,0,1-.165.318,2.5,2.5,0,0,0-.062.766c0,1.143.075,1.209,1.44,1.209,1.294,0,1.534-.109,1.534-.693,0-.212.042-.276.344-.522a3.421,3.421,0,0,1,2.5-.037c.042.035.177.136.3.225a.916.916,0,0,1,.361.524c.074.2.155.414.181.476a2.878,2.878,0,0,1,.084.525l.037.411h-.871a11.832,11.832,0,0,0-3.025.34.89.89,0,0,1-.255.085,5.933,5.933,0,0,0-1.248.424c0,.027-.111.092-.246.143a3.793,3.793,0,0,0-1.86,1.959A6.162,6.162,0,0,0,100.4,31.8a3.193,3.193,0,0,0,.337.821,1.492,1.492,0,0,1,.177.256,3.316,3.316,0,0,0,.911.908,2.022,2.022,0,0,1,.28.2,4.684,4.684,0,0,0,1.126.414.994.994,0,0,1,.359.121,6.672,6.672,0,0,0,1.809-.006,5.267,5.267,0,0,1,.561-.19,2.4,2.4,0,0,0,.794-.333,2.528,2.528,0,0,1,.274-.194,5.191,5.191,0,0,0,.988-.994l.1-.15V32.8a1.712,1.712,0,0,0,.237.849c.063.072.162.191.219.263.231.29.6.351,2.13.351,1.929,0,1.894.027,1.893-1.44,0-1-.036-1.116-.369-1.19-.579-.129-.659-.163-.85-.359-.265-.273-.248-.076-.276-3.106-.024-2.637-.053-3.067-.233-3.459a2.376,2.376,0,0,1-.12-.34,3.587,3.587,0,0,0-1.483-1.91.684.684,0,0,1-.241-.163,3.23,3.23,0,0,0-.936-.369c-.187-.052-.391-.118-.454-.145a12.9,12.9,0,0,0-3.373-.1m-96.8.031a.9.9,0,0,0-.312.068,1.438,1.438,0,0,1-.4.087,6.751,6.751,0,0,0-1.531.423c-.125.061-.412.192-.638.292a1.534,1.534,0,0,0-.411.225c0,.023-.07.067-.156.1a8.524,8.524,0,0,0-1.682,1.3A8.514,8.514,0,0,0,1.1,25.841a1.215,1.215,0,0,1-.157.255,2.746,2.746,0,0,0-.222.454c-.1.234-.231.532-.293.662a10.354,10.354,0,0,0-.393,4.234A7.448,7.448,0,0,0,.429,33.07a.4.4,0,0,1,.088.171,5.986,5.986,0,0,0,.429.964,1.633,1.633,0,0,1,.19.305A10.145,10.145,0,0,0,3.028,36.7a.773.773,0,0,1,.212.159,4.251,4.251,0,0,0,.539.382,3.758,3.758,0,0,1,.4.262,6.545,6.545,0,0,0,1.016.445.057.057,0,0,1,.062.05c0,.028.045.063.1.079A10.1,10.1,0,0,0,10.9,38.2a1.99,1.99,0,0,0,.529-.2.1.1,0,0,1,.092-.053,4.306,4.306,0,0,0,.985-.458.078.078,0,0,1,.064-.052,3.87,3.87,0,0,0,.736-.446,1.531,1.531,0,0,1,.259-.2,3.465,3.465,0,0,0,.4-.32l.358-.35c.176-.172.282-.29.779-.862a1.136,1.136,0,0,0,.195-.27,2.818,2.818,0,0,1,.345-.554,8.668,8.668,0,0,0,.875-2.155.859.859,0,0,1,.084-.255,6.3,6.3,0,0,0,.191-1.871A6.3,6.3,0,0,0,16.6,28.28a.859.859,0,0,1-.084-.255,8.483,8.483,0,0,0-.879-2.155,2.7,2.7,0,0,1-.216-.344,3.778,3.778,0,0,0-.349-.51c-.094-.107-.266-.307-.384-.445s-.3-.336-.413-.44-.288-.278-.4-.388a.835.835,0,0,0-.257-.2.678.678,0,0,1-.23-.158,3.135,3.135,0,0,0-.807-.523c-.036,0-.066-.021-.066-.047a2.217,2.217,0,0,0-.737-.384,2.921,2.921,0,0,1-.369-.17,11.085,11.085,0,0,0-2.183-.531,11.246,11.246,0,0,0-1.757-.016m113.638.014a3.938,3.938,0,0,0-1.531.558c0,.029-.075.084-.167.122a4.464,4.464,0,0,0-1,.926,6.8,6.8,0,0,0-.6,1l-.1.2,0-.794c-.01-1.649-.222-1.8-2.523-1.83-2.078-.023-2.013-.068-2.013,1.354,0,1.179.112,1.354.864,1.354a.947.947,0,0,1,.485.088l.126.088v4.44c0,4.793,0,4.715.309,4.909a8.19,8.19,0,0,0,2.555.047c.3-.136.31-.24.315-2.959,0-1.376.026-2.63.052-2.786a5.876,5.876,0,0,1,.659-2.03,3.771,3.771,0,0,1,.93-.947c.094-.039.17-.09.17-.114,0-.151,1.1-.452,1.659-.453a.992.992,0,0,0,.439-.052c0-.028.077-.078.17-.111.253-.088.283-.244.283-1.456,0-1.037-.045-1.388-.175-1.388a.316.316,0,0,1-.134-.09,1.01,1.01,0,0,0-.768-.081m-40.8.236c-.307.182-.312.207-.312,1.475v1.182h.356c.414,0,.577.088.627.338a2.419,2.419,0,0,0,.143.413,7.363,7.363,0,0,1,.262.808,3.6,3.6,0,0,0,.193.6,5.089,5.089,0,0,1,.227.709c.1.374.221.757.263.851s.169.489.282.879.24.785.282.879.158.464.258.822a6.183,6.183,0,0,0,.226.709,3.532,3.532,0,0,1,.17.51,7.419,7.419,0,0,0,.34,1.078,3.711,3.711,0,0,1,.17.471c.188.6.13.578,1.975.578,1.594,0,1.825-.037,1.825-.293a.951.951,0,0,1,.082-.237,13.488,13.488,0,0,0,.43-1.483,1.565,1.565,0,0,1,.118-.343,6.141,6.141,0,0,0,.223-.737,6.288,6.288,0,0,1,.221-.735,8.563,8.563,0,0,0,.259-.879,8.85,8.85,0,0,1,.258-.879,6.447,6.447,0,0,0,.219-.737c.1-.374.225-.821.283-.992s.131-.4.162-.51c.043-.152.058-.167.062-.067a6.7,6.7,0,0,0,.291,1.172,6.482,6.482,0,0,1,.231.766,5.364,5.364,0,0,0,.225.737,9.978,9.978,0,0,1,.409,1.446.836.836,0,0,0,.1.255,7.447,7.447,0,0,1,.254.851,8.374,8.374,0,0,0,.262.881,4.4,4.4,0,0,1,.194.624c.324,1.237.183,1.161,2.122,1.161,1.912,0,1.79.059,2.079-1a3.057,3.057,0,0,1,.195-.584,5.507,5.507,0,0,0,.254-.794,6,6,0,0,1,.251-.794A4.713,4.713,0,0,0,97,30.378a8.4,8.4,0,0,1,.259-.833,8.333,8.333,0,0,0,.256-.794,6.431,6.431,0,0,1,.224-.7,6.661,6.661,0,0,0,.227-.709c.1-.359.22-.729.262-.822s.166-.489.277-.879c.254-.894.365-1.021.886-1.021h.343L99.715,23.4,99.7,22.174l-.159-.137c-.157-.135-.175-.137-1.3-.136-1.785,0-2.193.2-2.422,1.172a1.436,1.436,0,0,1-.115.359,9.5,9.5,0,0,0-.256.992,9.434,9.434,0,0,1-.257.992,6.645,6.645,0,0,0-.221.822,7.993,7.993,0,0,1-.227.851c-.023.031-.14.478-.26.992a8.826,8.826,0,0,1-.256.964c-.03.022-.2.761-.413,1.786-.014.066-.026.036-.03-.071s-.032-.184-.063-.184-.057-.056-.057-.124a14.7,14.7,0,0,0-.449-1.752,8.41,8.41,0,0,1-.236-.822,5.89,5.89,0,0,0-.223-.761,7.588,7.588,0,0,1-.249-.878,7.13,7.13,0,0,0-.252-.879,7.629,7.629,0,0,1-.26-.908,7.783,7.783,0,0,0-.259-.907,2.883,2.883,0,0,1-.163-.539c-.262-1.074-.241-1.062-1.759-1.038-1.338.02-1.345.023-1.515.661a1.891,1.891,0,0,1-.137.406,8.222,8.222,0,0,0-.253.907,8.056,8.056,0,0,1-.255.907,7.426,7.426,0,0,0-.25.877,8.742,8.742,0,0,1-.256.907,9.255,9.255,0,0,0-.264.937,9.167,9.167,0,0,1-.254.907,8.675,8.675,0,0,0-.248.879,8.278,8.278,0,0,1-.26.907,1.126,1.126,0,0,0-.086.329c-.052.347-.054.342-.2-.325a4.855,4.855,0,0,0-.172-.65c-.028-.05-.141-.473-.251-.941s-.224-.9-.253-.964-.144-.5-.255-.964-.226-.9-.255-.964-.148-.509-.263-.992a7.605,7.605,0,0,0-.248-.907,1.538,1.538,0,0,1-.114-.4c-.171-.847-.465-1.3-.948-1.473a12.941,12.941,0,0,0-2.767-.05M74.362,24.2a1.326,1.326,0,0,1,.3.128,2.532,2.532,0,0,0,.267.2,2.478,2.478,0,0,1,.949,1.638l.038.269H70.755l.086-.3a2.124,2.124,0,0,1,.224-.5.876.876,0,0,0,.137-.263,3.144,3.144,0,0,1,.907-.867,1.434,1.434,0,0,0,.283-.171,3.483,3.483,0,0,1,1.969-.135m54.982.281a2.253,2.253,0,0,1,.862.392,2.238,2.238,0,0,0,.27.226c.117.086.213.181.213.211a2.059,2.059,0,0,0,.351.5,6.293,6.293,0,0,1,.386,1.172.287.287,0,0,0,.069.177,6.392,6.392,0,0,1,.006,1.887,3.741,3.741,0,0,0-.16.533,3.37,3.37,0,0,1-.3.757c-.115.2-.241.418-.28.489a1.206,1.206,0,0,1-.284.286,2.237,2.237,0,0,0-.27.226,3.137,3.137,0,0,1-2.43.392,2.994,2.994,0,0,1-2-2.213,6.394,6.394,0,0,1,.242-3.436.763.763,0,0,0,.133-.237,1.082,1.082,0,0,1,.156-.284,2.855,2.855,0,0,1,3.036-1.079M8.686,24.849a.466.466,0,0,0,.273.058,5.255,5.255,0,0,1,1.683.449,1.091,1.091,0,0,0,.326.191,2.6,2.6,0,0,1,.492.295c.092.079.27.224.4.323a4.916,4.916,0,0,1,1.016,1.229,2.8,2.8,0,0,0,.206.347,3.871,3.871,0,0,1,.342.879,1.543,1.543,0,0,0,.124.348,6.412,6.412,0,0,1,0,2.365,2.211,2.211,0,0,0-.149.426A5.144,5.144,0,0,1,11,34.737a2.1,2.1,0,0,0-.357.206,5.437,5.437,0,0,1-1.3.4,5.806,5.806,0,0,1-3.461-.516,1.475,1.475,0,0,0-.331-.169.512.512,0,0,1-.2-.128c-.076-.07-.23-.2-.341-.28a5.367,5.367,0,0,1-.841-.852.449.449,0,0,0-.12-.164,6.006,6.006,0,0,1-.794-1.622c-.277-1-.131-3.307.226-3.589a2.754,2.754,0,0,0,.2-.384,2.712,2.712,0,0,1,.255-.454c.049-.054.163-.2.254-.325a5.17,5.17,0,0,1,3.422-1.938,1.04,1.04,0,0,0,.386-.083,1.136,1.136,0,0,1,.675.009m24.5,3.406a2.465,2.465,0,0,0-.51.1c-.064.031-.333.124-.6.207a3.8,3.8,0,0,0-.68.279l-.454.288a4.719,4.719,0,0,0-1.16,1.095c-1.3,1.689-1.378,4.731-.158,6.059a.658.658,0,0,1,.128.17,4.162,4.162,0,0,0,.891.929,5.434,5.434,0,0,0,5.008.816,1.363,1.363,0,0,0,.452-.193c0-.028.056-.068.125-.09.6-.191,2.03-1.566,2.03-1.954a.054.054,0,0,1,.051-.055,3.2,3.2,0,0,0,.4-.932c0-.049.021-.089.047-.089.325,0,.289-2.582-.046-3.274a1.3,1.3,0,0,1-.114-.3,2.111,2.111,0,0,0-.28-.568,1.7,1.7,0,0,1-.173-.255,4.269,4.269,0,0,0-.879-.992c-.04,0-.111-.057-.157-.128a1.355,1.355,0,0,0-.389-.291,2.286,2.286,0,0,1-.333-.2,3.229,3.229,0,0,0-.883-.37,3.009,3.009,0,0,1-.436-.147,5.094,5.094,0,0,0-1.883-.106m74.753.927a1.937,1.937,0,0,1-.081.553,3.57,3.57,0,0,0-.211.477,2.979,2.979,0,0,1-1.293,1.512.826.826,0,0,0-.276.165,2.258,2.258,0,0,1-1.055.148,1.518,1.518,0,0,1-1.495-1.892,1.579,1.579,0,0,1,1.229-1.07c.275-.085.551-.179.613-.208a6.207,6.207,0,0,1,1.723-.155l.872-.007-.025.478M34.234,32.277a1.15,1.15,0,0,1,.34,1.985,1.521,1.521,0,0,0-.232.185c-.153.22-.938.064-1.284-.256-.275-.255-.509-1.176-.3-1.176.031,0,.057-.036.057-.08,0-.442.823-.824,1.418-.658m-15.911.554a4.155,4.155,0,0,1-.247.808,6.182,6.182,0,0,0-.326.865c-.029.094.215.1,4.577.1h4.608l-.036-.383c-.02-.21-.036-.644-.037-.964v-.581h-8.5l-.035.156" transform="translate(0 -8.623)" fill="#24344c" fill-rule="evenodd"/><path d="M86.562.077c-.285.164-.3.207-.307.891l0,.421-.128-.117a.582.582,0,0,0-.983.523c.014.062.027.133.029.156a.794.794,0,0,0,.363.3.063.063,0,0,1,.066.059,1.919,1.919,0,0,0,.326.4c.358.372.533,1.177.213.977-.063-.039-.114-.091-.114-.115s-.065-.069-.146-.1c-.157-.06-.439-.016-.392.06.016.026-.024.055-.088.065s-.113.041-.11.068a.115.115,0,0,1-.061.093c-.278.171-.142.5.455,1.09l.578.574-.008.791c-.007.739,0,.8.109.872.064.045.1.106.084.135-.067.109,1.03.063,1.116-.046.07-.09.068-.092-.021-.021-.068.053-.1.057-.1.012a.127.127,0,0,1,.085-.1c.07-.027.085-.174.085-.836v-.8l.567-.561c.548-.543.567-.57.567-.812a.564.564,0,0,0-.944-.435l-.19.145v-.7l.567-.558c.641-.63.732-.881.439-1.208-.138-.154-.553-.267-.553-.15,0,.036-.027.05-.059.03-.084-.052-.338.128-.338.239,0,.051-.016.077-.036.057A2.474,2.474,0,0,1,87.606.9c.012-.616-.011-.7-.227-.81a1.2,1.2,0,0,0-.818-.014" transform="translate(-56.157 0)" fill="#74993c" fill-rule="evenodd"/></g></g></svg>