<?xml version="1.0" encoding="UTF-8"?>
<svg width="400" height="87.887" viewBox="0, 0, 400,87.88732394366197" xmlns="http://www.w3.org/2000/svg">
    <g fill-rule="evenodd">
        <path
            d="m23.947 56.961c-3.102 3.848-4.551 7.674-3.55 9.372 0.135 0.23 0.374 0.666 0.532 0.969 1.496 2.888 6.399 2.513 7.773-0.594 0.586-1.323 0.25-4.766-0.524-5.375-0.058-0.045-0.364-0.592-0.679-1.214s-0.744-1.291-0.953-1.487-0.379-0.447-0.379-0.558c0-0.11-0.3-0.51-0.667-0.887-0.367-0.378-0.667-0.762-0.667-0.854 0-0.332-0.262-0.146-0.886 0.628"
            fill="#5484bc" class="drop" />
        <path
            d="m23.671 13.121c-0.586 0.112-1.85 1.058-2.024 1.515-0.081 0.212-0.147 4.356-0.147 9.208v8.823h2.836c1.559 0 2.965 0.068 3.125 0.152 0.159 0.085 1.005 0.238 1.88 0.341 1.615 0.191 3.968 0.707 4.576 1.003 0.183 0.09 1.08 0.43 1.993 0.756 0.913 0.325 1.701 0.649 1.75 0.718 0.05 0.07 0.69 0.415 1.423 0.768 0.734 0.352 1.376 0.706 1.427 0.785s0.501 0.39 1 0.691c0.885 0.534 1.136 0.72 2.244 1.661 0.297 0.252 0.578 0.458 0.624 0.458 0.435 0 4.842 5.057 5.47 6.278 0.204 0.397 0.431 0.722 0.505 0.722s0.412 0.581 0.752 1.292c0.34 0.71 0.672 1.314 0.739 1.341s0.368 0.74 0.669 1.583c0.302 0.844 0.606 1.574 0.676 1.622 0.184 0.127 0.937 3.176 1.173 4.745 0.11 0.734 0.275 1.384 0.366 1.446 0.246 0.165 0.242 6.616-3e-3 6.769-0.105 0.065-0.217 0.419-0.249 0.785l-0.059 0.667h12.481 12.482l0.201-0.681c0.11-0.374 0.39-1.087 0.621-1.583 0.23-0.497 0.558-1.232 0.728-1.635s0.389-0.816 0.487-0.917 0.43-0.597 0.737-1.101c0.969-1.587 3.93-4.618 5.473-5.601 0.526-0.335 0.994-0.663 1.04-0.729 0.113-0.162 2.251-1.17 2.482-1.17 0.101 0 0.184-0.066 0.184-0.147 0-0.248 2.67-1.05 4.25-1.276 0.459-0.065 0.93-0.196 1.048-0.289 0.271-0.217 4.367-0.249 4.702-0.037 0.211 0.133 2.514 0.664 4.431 1.021l0.515 0.096 0.111-10.725c0.076-7.28 0.055-11.074-0.065-11.809-0.232-1.422-0.801-3.286-1.093-3.578-0.128-0.128-0.232-0.281-0.232-0.341 0-0.831-3.522-4.415-4.339-4.415-0.089 0-0.161-0.063-0.161-0.141 0-0.781-7.28-1.859-8.078-1.196-0.225 0.186-0.255 1.693-0.255 12.691v12.48h-1.584-1.583v-12.472-12.472l-0.375-0.2c-0.288-0.153-6.629-0.188-27.292-0.151l-26.916 0.048-1.334 0.381c-0.733 0.21-1.708 0.613-2.166 0.896-0.459 0.283-1.064 0.646-1.344 0.806-0.281 0.159-0.919 0.681-1.417 1.159l-0.906 0.869-0.083-5.165c-0.094-5.798-0.023-5.483-1.417-6.284-0.736-0.423-1.45-0.581-2.079-0.461m127.41 10.992c-1.915 0.163-5.083 0.84-5.083 1.086 0 0.074-0.079 0.134-0.176 0.134-0.31 0-2.991 1.218-2.991 1.358 0 0.075-0.283 0.28-0.629 0.457-0.347 0.177-1.147 0.834-1.778 1.462-1.529 1.517-1.655 1.67-2.186 2.64-0.252 0.458-0.506 0.871-0.566 0.917-0.755 0.579-1.404 4.004-1.292 6.818 0.116 2.916 0.482 4.275 1.622 6.015 0.27 0.413 0.543 0.862 0.607 1 0.379 0.814 3.09 3.285 4.507 4.108 0.439 0.255 0.894 0.556 1.01 0.669s0.716 0.451 1.333 0.752 1.211 0.632 1.319 0.736c0.109 0.103 0.821 0.439 1.584 0.745 0.762 0.306 1.473 0.643 1.58 0.747 0.107 0.105 0.407 0.271 0.667 0.368 1.517 0.57 2.054 0.802 2.055 0.89 0 0.055 0.657 0.389 1.459 0.744s1.483 0.702 1.512 0.772c0.03 0.069 0.442 0.348 0.917 0.621 3.95 2.271 4.225 7.319 0.499 9.194-0.441 0.222-0.849 0.467-0.906 0.545-0.532 0.728-6.847 0.697-7.3-0.035-0.055-0.09-0.325-0.219-0.599-0.287-0.585-0.145-2.618-1.037-2.744-1.204-0.048-0.064-0.282-0.216-0.521-0.338-0.238-0.123-0.801-0.515-1.25-0.872-0.449-0.356-1.116-0.848-1.483-1.093s-0.692-0.509-0.722-0.587c-0.205-0.523-1.393-0.116-2.24 0.768-1.166 1.217-1.788 1.925-1.788 2.037 0 0.051-0.206 0.336-0.458 0.633-1.988 2.341-1.935 2.576 1.238 5.404 0.247 0.221 0.904 0.669 1.46 0.997 0.555 0.328 1.095 0.678 1.2 0.777 0.104 0.1 0.779 0.435 1.5 0.746 0.72 0.311 1.349 0.62 1.397 0.687 0.129 0.182 3.44 1.083 4.496 1.224 0.504 0.067 1.016 0.203 1.138 0.301 0.301 0.244 5.893 0.24 6.399-4e-3 0.209-0.101 0.867-0.272 1.463-0.381 1.286-0.233 3.618-0.949 3.696-1.134 0.03-0.071 0.543-0.364 1.141-0.65 1.134-0.543 1.552-0.861 3.128-2.382 1.505-1.454 2.672-3.246 3.201-4.915 0.116-0.366 0.278-0.751 0.36-0.855 0.787-0.996 0.794-7.896 0.01-8.956-0.077-0.104-0.342-0.714-0.589-1.355-0.247-0.642-0.618-1.38-0.823-1.641-1.322-1.675-2.006-2.463-2.37-2.726-0.228-0.165-0.732-0.581-1.119-0.925-0.388-0.344-0.785-0.625-0.883-0.625-0.097 0-0.405-0.206-0.683-0.458s-0.988-0.684-1.579-0.959c-0.59-0.275-1.113-0.553-1.162-0.618s-0.536-0.315-1.083-0.556-1.37-0.626-1.828-0.857-1.432-0.641-2.163-0.912-1.369-0.556-1.417-0.632c-0.047-0.077-0.706-0.378-1.462-0.669-0.756-0.292-1.469-0.621-1.583-0.732-0.115-0.111-0.58-0.418-1.035-0.682-4.781-2.777-3.831-8.268 1.603-9.267 0.581-0.106 1.187-0.261 1.346-0.343 0.371-0.19 1.961-0.194 1.961-5e-3 0 0.079 0.411 0.192 0.913 0.251 2.739 0.322 4.587 1.869 4.587 3.84 0 1.709 0.982 2.141 4.709 2.069l2.761-0.053 0.598-0.617 0.599-0.617v-2.574c0-2.517-0.384-4.776-0.812-4.776-0.073 0-0.237-0.206-0.365-0.458-0.272-0.534-2.203-2.542-2.444-2.542-0.09 0-0.364-0.185-0.609-0.412-0.397-0.368-2.528-1.419-2.882-1.422-0.076-1e-3 -0.363-0.118-0.637-0.261-1.567-0.817-6.282-1.385-9.335-1.125m230.72 1.196l-0.555 0.496-0.052 2.906-0.052 2.905 0.442 0.525c0.243 0.289 0.585 0.526 0.76 0.526s0.319 0.075 0.319 0.166c0 0.099 0.614 0.167 1.511 0.167 1.54 0 2.155 0.164 2.155 0.575 0 0.127 0.077 0.256 0.17 0.287 0.111 0.037 0.154 1.533 0.125 4.306-0.044 4.176-0.05 4.239-0.341 3.706-0.163-0.298-0.582-0.723-0.932-0.944-0.349-0.22-0.744-0.51-0.878-0.644-1.818-1.818-10.667-2.961-12.56-1.622-0.092 0.065-0.542 0.218-1 0.341-0.984 0.264-2.576 0.966-2.883 1.272-0.119 0.118-0.476 0.338-0.794 0.489-0.744 0.353-3.221 2.766-3.819 3.721-0.254 0.405-0.602 0.888-0.774 1.073-0.173 0.185-0.314 0.399-0.314 0.475s-0.293 0.756-0.652 1.51c-0.927 1.949-1.404 3.624-1.613 5.668-0.063 0.621-0.179 1.17-0.258 1.218-0.205 0.127-0.182 5.359 0.023 5.486 0.092 0.056 0.167 0.342 0.167 0.635 0 1.536 0.791 4.56 1.675 6.403 0.362 0.754 0.658 1.434 0.658 1.51s0.141 0.29 0.314 0.475c0.172 0.185 0.514 0.654 0.759 1.044 0.382 0.604 1.854 2.165 3.011 3.191 0.183 0.162 0.708 0.501 1.166 0.752 0.459 0.251 0.871 0.506 0.917 0.565 0.175 0.228 1.801 0.818 3 1.089 0.688 0.156 1.423 0.366 1.634 0.467 0.474 0.228 5.349 0.241 5.506 0.016 0.06-0.087 0.596-0.256 1.191-0.376 1.338-0.269 2.861-0.876 3.357-1.339 0.206-0.192 0.484-0.349 0.617-0.349s0.944-0.713 1.802-1.586l1.56-1.585v0.95c0 1.073 0.499 2.312 0.995 2.47 0.169 0.053 0.348 0.203 0.397 0.332 0.22 0.574 1.682 0.752 6.151 0.752h4.316l0.487-0.487 0.487-0.487v-3.096c0-3.389-0.106-3.763-1.064-3.763-0.976 0-2.041-0.52-2.493-1.217l-0.443-0.683v-17.269c0-16.48-0.063-19.026-0.479-19.331-0.062-0.046-0.252-0.397-0.421-0.781-0.415-0.94-1.642-2.126-2.855-2.76l-0.995-0.52-4.445-0.063-4.444-0.062-0.556 0.495m-299.14 11.358v9.166h-11.252-11.253l-0.372-0.791c-0.206-0.436-0.418-0.83-0.473-0.875-0.055-0.046-0.345-0.534-0.644-1.084s-0.647-1.083-0.775-1.185c-0.127-0.101-0.231-0.225-0.231-0.275 0-0.154-1.101-1.734-1.497-2.146-0.207-0.217-0.499-0.589-0.649-0.828-0.28-0.448-0.529-0.718-2.57-2.778-2.438-2.462-5.404-4.808-7.326-5.793-0.344-0.176-0.625-0.372-0.625-0.435s-0.581-0.398-1.292-0.746c-0.71-0.348-1.332-0.69-1.383-0.762-0.05-0.071-0.387-0.238-0.75-0.37-0.581-0.213 1.799-0.243 20.217-0.253l20.875-0.012v9.167m18.333 0v9.166h-1.667-1.666v-9.166-9.167h1.666 1.667v9.167m76.734-7.338c-0.791 0.32-0.901 0.987-0.901 5.488v4.183h-1.672c-2.95 0-3.161 0.251-3.161 3.764 0 3.487 0.19 3.736 2.84 3.736h1.827v8.405c0 5.008 0.071 8.931 0.177 9.708 0.196 1.444 0.624 3.257 0.8 3.387 0.062 0.046 0.397 0.665 0.744 1.375 0.346 0.71 0.7 1.292 0.786 1.292 0.085 0 0.334 0.283 0.552 0.628 0.218 0.346 0.744 0.849 1.169 1.117 0.424 0.268 0.772 0.545 0.772 0.614 0 0.15 2.303 1.307 2.601 1.307 0.112 0 0.229 0.074 0.26 0.164 0.177 0.521 4.965 1.233 7.701 1.144 2.549-0.083 2.506-0.023 2.574-3.598 0.085-4.421 0.138-4.324-2.501-4.631-2.334-0.271-4.01-1.021-4.833-2.162-0.264-0.367-0.573-0.779-0.685-0.917-0.635-0.774-0.681-1.38-0.742-9.708l-0.06-8.125 3.551-3e-3c1.953-1e-3 3.627-0.057 3.72-0.125 0.945-0.683 1.08-1.131 1.08-3.573 0-3.784-0.018-3.799-4.822-3.799h-3.511v-4.272c0-5.941 0.319-5.561-4.667-5.548-1.787 4e-3 -3.407 0.071-3.599 0.149m37.683 8.783c-1.483 0.098-3.401 0.376-3.704 0.537-0.163 0.086-1.061 0.39-1.996 0.674s-1.797 0.613-1.917 0.731c-0.119 0.118-0.335 0.259-0.48 0.314-0.477 0.18-2.064 1.252-2.387 1.612-0.175 0.194-0.396 0.353-0.49 0.353-0.235 0-1.696 1.562-2.417 2.584-0.323 0.458-0.681 0.927-0.796 1.042-0.468 0.471-1.904 3.757-2.247 5.141-0.202 0.816-0.432 1.633-0.512 1.817-0.441 1.014-0.428 7.769 0.016 8.323 0.078 0.097 0.193 0.439 0.256 0.76 0.159 0.812 0.932 3.232 1.065 3.333 0.06 0.046 0.37 0.633 0.689 1.305s0.657 1.272 0.752 1.334c0.094 0.061 0.366 0.412 0.604 0.78 0.681 1.052 2.077 2.502 3.201 3.325 0.566 0.415 1.142 0.858 1.279 0.986 0.952 0.882 4.954 2.406 7.084 2.698 0.458 0.063 0.93 0.192 1.048 0.286 0.294 0.235 5.938 0.239 6.231 5e-3 0.121-0.097 0.596-0.229 1.054-0.293 1.399-0.195 3.45-0.758 4.417-1.212 0.504-0.237 1.385-0.641 1.958-0.898 0.573-0.258 1.042-0.541 1.042-0.631 0-0.089 0.168-0.215 0.375-0.279 1.957-0.611 3.118-3.46 1.67-4.099-0.071-0.031-0.391-0.561-0.712-1.177-1.157-2.222-2.666-3.123-3.619-2.162-0.163 0.165-0.823 0.553-1.464 0.86-0.642 0.308-1.205 0.617-1.252 0.686-0.262 0.39-3.108 1.086-5.107 1.249-1.909 0.156-5.782-0.617-6.223-1.243-0.047-0.066-0.385-0.3-0.752-0.518-0.916-0.546-2.08-1.753-2.657-2.752-0.264-0.458-0.532-0.871-0.595-0.916-0.188-0.137-0.791-2.024-0.917-2.871l-0.117-0.787 11.909-0.046c13.184-0.051 12.21 0.039 12.804-1.19 0.352-0.728 0.476-3.983 0.173-4.567-0.082-0.159-0.232-0.927-0.333-1.706-0.186-1.446-0.939-4.178-1.195-4.339-0.078-0.049-0.332-0.52-0.565-1.046-0.771-1.743-2.936-4.227-4.605-5.284-0.496-0.313-0.946-0.632-0.999-0.708-0.134-0.189-2.456-1.123-2.795-1.124-0.151-1e-3 -0.491-0.114-0.756-0.252-0.796-0.415-4.085-0.762-6.018-0.635m91.087 0.253c-0.685 0.086-1.322 0.218-1.416 0.293s-0.434 0.188-0.755 0.251c-1.13 0.221-3.191 0.962-3.274 1.177-0.046 0.119-0.265 0.263-0.487 0.319-0.653 0.163-2.132 1.768-2.481 2.689-0.171 0.453-0.388 0.874-0.484 0.936-0.104 0.068-0.176 0.966-0.182 2.25-0.013 3.359 0.219 3.553 4.232 3.553 3.802 0 4.51-0.319 4.51-2.038 0-0.623 0.123-0.811 1.012-1.534 1.162-0.945 6.278-1.022 7.35-0.11 0.122 0.104 0.521 0.4 0.888 0.66 0.522 0.37 0.752 0.702 1.06 1.539 0.217 0.586 0.457 1.217 0.533 1.4s0.187 0.877 0.248 1.542l0.109 1.208h-2.559c-3.277 0-8.337 0.568-8.891 0.999-0.092 0.071-0.43 0.184-0.75 0.25-1.098 0.227-3.667 1.1-3.667 1.245 0 0.08-0.325 0.269-0.722 0.421-2.108 0.805-4.66 3.492-5.468 5.758-0.474 1.327-0.567 5.466-0.156 6.91 0.28 0.985 0.816 2.291 0.99 2.414 0.068 0.047 0.303 0.386 0.521 0.753 0.513 0.86 1.737 2.079 2.678 2.669 0.407 0.255 0.778 0.517 0.824 0.581 0.152 0.213 2.355 1.022 3.31 1.216 0.517 0.105 0.991 0.266 1.055 0.356 0.167 0.241 4.82 0.225 5.318-0.017 0.22-0.108 0.963-0.359 1.65-0.559 1.182-0.344 2.148-0.75 2.333-0.979 0.046-0.057 0.408-0.314 0.804-0.571 0.738-0.478 2.384-2.135 2.904-2.922l0.29-0.441 1e-3 0.45c2e-3 0.841 0.356 2.107 0.697 2.496 0.186 0.213 0.477 0.56 0.644 0.772 0.678 0.852 1.772 1.032 6.261 1.032 5.671 0 5.568 0.079 5.564-4.233-3e-3 -2.947-0.107-3.28-1.085-3.497-1.701-0.378-1.938-0.478-2.498-1.056-0.78-0.802-0.729-0.224-0.81-9.13-0.072-7.75-0.156-9.013-0.684-10.167-0.126-0.275-0.284-0.725-0.353-1-0.488-1.971-2.637-4.737-4.36-5.615-0.389-0.198-0.708-0.414-0.708-0.479 0-0.148-1.441-0.716-2.75-1.084-0.55-0.154-1.15-0.346-1.333-0.426-1.048-0.457-7.122-0.629-9.913-0.281m-284.5 0.092c-0.41 0.036-0.823 0.127-0.916 0.201-0.094 0.074-0.62 0.189-1.169 0.255-1.225 0.148-3.601 0.805-4.501 1.244-0.367 0.178-1.211 0.565-1.875 0.858-0.665 0.294-1.209 0.591-1.209 0.66s-0.206 0.198-0.458 0.286c-0.766 0.267-3.751 2.574-4.943 3.821-1.452 1.519-3.02 3.588-3.637 4.801-0.187 0.367-0.395 0.705-0.462 0.75-0.067 0.046-0.361 0.646-0.652 1.334-0.292 0.687-0.68 1.564-0.862 1.947-1.072 2.255-1.667 8.662-1.156 12.443 0.227 1.677 0.944 4.634 1.157 4.772 0.074 0.048 0.191 0.275 0.259 0.504 0.202 0.674 1.121 2.743 1.26 2.834 0.07 0.045 0.321 0.449 0.559 0.897 0.845 1.591 5.029 6.433 5.561 6.437 0.068 0 0.349 0.21 0.624 0.466s0.988 0.761 1.584 1.123c0.595 0.361 1.121 0.707 1.167 0.769 0.113 0.15 2.755 1.308 2.985 1.308 0.099 0 0.181 0.066 0.181 0.147s0.131 0.185 0.292 0.231c5.755 1.648 11.445 1.777 16.291 0.37 0.825-0.24 1.525-0.506 1.556-0.592 0.03-0.086 0.152-0.156 0.271-0.156 0.319 0 2.831-1.168 2.896-1.347 0.03-0.084 0.115-0.153 0.188-0.153 0.182 0 2.047-1.132 2.163-1.312 0.051-0.081 0.393-0.348 0.76-0.595 0.366-0.248 0.891-0.671 1.166-0.94 0.275-0.27 0.749-0.734 1.053-1.03 0.516-0.505 0.829-0.851 2.291-2.533 0.315-0.363 0.573-0.721 0.573-0.795 0-0.14 0.835-1.481 1.015-1.629 0.492-0.406 2.254-4.742 2.573-6.333 0.064-0.321 0.176-0.658 0.248-0.75 0.294-0.374 0.562-2.993 0.562-5.5s-0.268-5.126-0.562-5.5c-0.072-0.092-0.184-0.429-0.248-0.75-0.324-1.614-2.1-5.969-2.583-6.333-0.061-0.046-0.347-0.502-0.636-1.012-0.289-0.511-0.751-1.186-1.025-1.5-0.275-0.315-0.783-0.903-1.13-1.308s-0.893-0.987-1.214-1.292c-0.321-0.306-0.846-0.818-1.168-1.139-0.322-0.32-0.661-0.583-0.755-0.583-0.093 0-0.398-0.208-0.677-0.463-0.632-0.578-2.113-1.537-2.373-1.537-0.106 0-0.194-0.061-0.194-0.137 0-0.152-1.016-0.682-2.166-1.13-0.413-0.161-0.9-0.386-1.084-0.501-0.57-0.359-3.933-1.177-6.416-1.562-0.922-0.142-3.775-0.168-5.164-0.046m334 0.04c-1.792 0.322-4.5 1.309-4.5 1.64 0 0.086-0.221 0.247-0.491 0.359-0.53 0.22-2.118 1.697-2.926 2.722-0.463 0.588-1.017 1.513-1.766 2.949l-0.304 0.583-0.014-2.333c-0.029-4.848-0.653-5.301-7.416-5.378-6.108-0.069-5.916-0.199-5.916 3.98 0 3.466 0.328 3.981 2.538 3.981 0.684 0 1.184 0.091 1.425 0.259l0.37 0.26v13.049c0 14.086-0.014 13.857 0.909 14.428 0.657 0.405 6.681 0.517 7.511 0.139 0.88-0.401 0.912-0.706 0.926-8.697 6e-3 -4.045 0.075-7.73 0.152-8.188 0.431-2.56 0.965-4.207 1.937-5.966 0.415-0.751 2.189-2.559 2.732-2.784 0.275-0.114 0.5-0.264 0.5-0.334 0-0.445 3.236-1.328 4.875-1.331 0.71-1e-3 1.291-0.069 1.291-0.152s0.226-0.229 0.501-0.325c0.743-0.259 0.833-0.718 0.833-4.278 0-3.048-0.131-4.08-0.515-4.08-0.071 0-0.248-0.12-0.395-0.266-0.322-0.323-1.243-0.42-2.257-0.237m-119.92 0.695c-0.901 0.535-0.916 0.607-0.916 4.334v3.474h1.046c1.217 0 1.697 0.259 1.844 0.994 0.056 0.278 0.245 0.825 0.421 1.214 0.176 0.39 0.522 1.459 0.77 2.375 0.249 0.917 0.503 1.705 0.567 1.75 0.063 0.046 0.363 0.984 0.666 2.084s0.651 2.225 0.774 2.5 0.496 1.437 0.828 2.583c0.333 1.146 0.705 2.308 0.828 2.583 0.122 0.275 0.463 1.363 0.757 2.417 0.295 1.054 0.593 1.992 0.663 2.083 0.069 0.092 0.294 0.767 0.5 1.5 0.573 2.046 0.868 2.984 0.998 3.167 0.065 0.092 0.291 0.714 0.501 1.383 0.552 1.75 0.383 1.7 5.806 1.7 4.684 0 5.364-0.109 5.364-0.862 0-0.094 0.109-0.407 0.242-0.696 0.217-0.47 0.639-1.929 1.263-4.358 0.117-0.459 0.273-0.912 0.347-1.008 0.073-0.096 0.368-1.071 0.656-2.167s0.581-2.067 0.651-2.159c0.071-0.091 0.413-1.254 0.761-2.583s0.69-2.492 0.759-2.583c0.069-0.092 0.359-1.067 0.645-2.167s0.661-2.413 0.832-2.917 0.386-1.179 0.477-1.5c0.127-0.446 0.17-0.492 0.183-0.196 0.024 0.539 0.694 3.243 0.854 3.446 0.073 0.092 0.378 1.105 0.68 2.25 0.301 1.146 0.599 2.121 0.662 2.167 0.098 0.072 0.333 0.901 1.203 4.25 0.095 0.367 0.222 0.704 0.282 0.75s0.396 1.171 0.746 2.5 0.697 2.494 0.77 2.588c0.074 0.095 0.33 0.92 0.569 1.834 0.952 3.637 0.539 3.411 6.236 3.411 5.62 0 5.262 0.173 6.111-2.949 0.244-0.899 0.502-1.672 0.573-1.717 0.071-0.046 0.407-1.096 0.748-2.334 0.341-1.237 0.673-2.287 0.739-2.333 0.067-0.046 0.365-0.983 0.663-2.083s0.641-2.202 0.761-2.449 0.459-1.297 0.753-2.334c0.295-1.036 0.591-1.959 0.659-2.051 0.067-0.091 0.368-1.029 0.668-2.083 0.301-1.054 0.646-2.142 0.769-2.417 0.122-0.275 0.489-1.437 0.815-2.583 0.748-2.628 1.072-3 2.604-3h1.009l-0.053-3.598-0.054-3.598-0.467-0.402c-0.461-0.396-0.515-0.402-3.834-0.4-5.245 3e-3 -6.445 0.584-7.118 3.444-0.125 0.534-0.277 1.008-0.337 1.054-0.059 0.046-0.399 1.358-0.753 2.917-0.355 1.558-0.694 2.871-0.754 2.916-0.06 0.046-0.353 1.134-0.651 2.417-0.299 1.283-0.598 2.408-0.666 2.5s-0.411 1.404-0.764 2.917c-0.352 1.512-0.69 2.787-0.751 2.833-0.089 0.066-0.591 2.237-1.214 5.25-0.04 0.194-0.077 0.106-0.088-0.208-0.011-0.298-0.094-0.542-0.186-0.542s-0.167-0.164-0.167-0.365c0-0.44-1.112-4.776-1.32-5.149-0.082-0.145-0.393-1.233-0.693-2.417-0.299-1.184-0.594-2.19-0.654-2.236-0.061-0.045-0.39-1.207-0.732-2.58s-0.675-2.535-0.74-2.583-0.409-1.249-0.765-2.67c-0.355-1.421-0.697-2.621-0.76-2.667-0.063-0.045-0.279-0.758-0.48-1.583-0.769-3.157-0.708-3.12-5.17-3.051-3.934 0.06-3.954 0.069-4.453 1.942-0.162 0.61-0.344 1.146-0.404 1.192s-0.395 1.246-0.745 2.667c-0.351 1.421-0.688 2.621-0.749 2.667-0.062 0.045-0.392 1.206-0.734 2.578-0.342 1.373-0.68 2.573-0.752 2.667s-0.422 1.334-0.777 2.755c-0.356 1.42-0.692 2.621-0.747 2.666-0.055 0.046-0.383 1.209-0.729 2.584s-0.69 2.575-0.764 2.666c-0.073 0.092-0.187 0.527-0.253 0.966-0.152 1.02-0.16 1.006-0.585-0.955-0.196-0.905-0.423-1.765-0.505-1.911-0.082-0.147-0.414-1.391-0.737-2.766-0.324-1.375-0.658-2.65-0.744-2.834-0.086-0.183-0.423-1.458-0.75-2.833s-0.664-2.65-0.75-2.833c-0.087-0.184-0.434-1.496-0.773-2.917-0.338-1.421-0.667-2.621-0.73-2.667-0.063-0.045-0.214-0.571-0.334-1.166-0.504-2.488-1.367-3.828-2.787-4.329-0.868-0.306-7.658-0.428-8.134-0.146m-17.464 6.578c0.439 0.148 0.835 0.317 0.881 0.375s0.399 0.32 0.786 0.582c1.399 0.95 2.51 2.867 2.788 4.815l0.113 0.791h-7.584-7.585l0.254-0.875c0.14-0.481 0.436-1.141 0.658-1.467s0.403-0.673 0.403-0.773c0-0.338 1.914-2.168 2.667-2.549 0.412-0.209 0.787-0.435 0.833-0.503 0.396-0.58 4.426-0.856 5.786-0.396m161.6 0.826c1.068 0.277 2.252 0.816 2.533 1.153 0.092 0.111 0.449 0.409 0.793 0.663 0.343 0.253 0.625 0.532 0.625 0.619 0 0.155 0.802 1.302 1.031 1.473 0.166 0.125 1.135 3.066 1.135 3.446 0 0.174 0.092 0.408 0.204 0.52 0.275 0.275 0.291 4.985 0.019 5.546-0.107 0.221-0.318 0.926-0.469 1.567-0.152 0.642-0.552 1.644-0.889 2.226-0.338 0.582-0.708 1.23-0.822 1.438-0.115 0.209-0.49 0.587-0.834 0.841s-0.701 0.552-0.793 0.663c-0.948 1.138-4.791 1.758-7.142 1.151-2.729-0.704-4.992-3.208-5.875-6.503-0.73-2.72-0.308-8.721 0.71-10.1 0.215-0.292 0.391-0.606 0.391-0.697 0-0.092 0.207-0.468 0.459-0.836 1.874-2.736 5.554-4.043 8.924-3.17m-354.63 1.071c0.057 0.091 0.418 0.168 0.802 0.17 1.107 7e-3 4.948 1.031 4.948 1.32 0 0.065 0.432 0.318 0.959 0.562s1.178 0.634 1.447 0.867c0.269 0.232 0.794 0.659 1.167 0.948 0.921 0.715 2.374 2.472 2.985 3.612 0.276 0.515 0.549 0.975 0.606 1.021 0.169 0.135 0.772 1.685 1.005 2.583 0.119 0.458 0.282 0.919 0.363 1.024 0.431 0.561 0.432 6.39 1e-3 6.951-0.081 0.105-0.278 0.669-0.437 1.252-0.953 3.485-3.955 7.215-7.047 8.753-0.531 0.265-1.003 0.536-1.049 0.604-0.145 0.214-2.658 0.991-3.809 1.179-3.417 0.556-7.885-0.11-10.171-1.516-0.443-0.274-0.881-0.497-0.972-0.497s-0.349-0.169-0.574-0.375c-0.224-0.206-0.675-0.577-1.001-0.824-0.714-0.541-2.473-2.322-2.473-2.504 0-0.072-0.158-0.289-0.352-0.483-0.578-0.578-1.947-3.374-2.333-4.766-0.813-2.929-0.385-9.719 0.663-10.548 0.058-0.046 0.326-0.553 0.596-1.128s0.607-1.175 0.75-1.333c0.143-0.159 0.479-0.589 0.748-0.956 2.188-2.989 6.332-5.337 10.059-5.697 0.576-0.056 1.086-0.166 1.135-0.244 0.123-0.199 1.859-0.178 1.984 0.025m72.009 10.011c-0.637 0.074-1.312 0.207-1.5 0.297s-0.98 0.364-1.759 0.609-1.679 0.614-2 0.819c-0.32 0.206-0.921 0.587-1.333 0.847-1.166 0.735-2.391 1.891-3.41 3.217-3.817 4.965-4.05 13.906-0.465 17.809 0.206 0.224 0.375 0.45 0.375 0.501 0 0.269 1.56 1.895 2.619 2.73 3.989 3.145 9.508 4.044 14.72 2.398 0.73-0.231 1.328-0.486 1.328-0.568 0-0.081 0.164-0.2 0.366-0.264 1.767-0.561 5.967-4.603 5.967-5.743 0-0.09 0.068-0.163 0.151-0.163 0.172 0 1.182-2.34 1.182-2.739 0-0.144 0.062-0.261 0.138-0.261 0.955 0 0.848-7.588-0.135-9.623-0.185-0.382-0.336-0.776-0.336-0.876 0-0.211-0.658-1.545-0.823-1.668-0.061-0.046-0.29-0.383-0.508-0.75-0.541-0.908-2.32-2.917-2.584-2.917-0.117 0-0.325-0.168-0.461-0.375-0.136-0.206-0.651-0.59-1.144-0.854s-0.934-0.531-0.98-0.593c-0.155-0.21-1.599-0.815-2.594-1.088-0.544-0.149-1.121-0.343-1.281-0.432-0.679-0.374-3.585-0.539-5.533-0.313m219.71 2.726c-0.04 0.773-0.148 1.504-0.239 1.625-0.092 0.122-0.37 0.753-0.619 1.403-0.712 1.861-2.353 3.781-3.8 4.445-0.445 0.204-0.81 0.422-0.81 0.485 0 0.235-1.95 0.508-3.102 0.434-3.134-0.201-5.087-2.673-4.394-5.562 0.353-1.469 1.535-2.499 3.612-3.146 0.807-0.251 1.618-0.526 1.801-0.611 0.579-0.269 2.414-0.434 5.063-0.456l2.562-0.021-0.074 1.404m-216.63 9.094c2.48 0.692 3.111 4.376 1 5.833-0.321 0.222-0.628 0.467-0.683 0.545-0.45 0.648-2.758 0.188-3.774-0.752-0.809-0.749-1.496-3.457-0.877-3.457 0.092 0 0.167-0.106 0.167-0.235 0-1.298 2.42-2.422 4.167-1.934m-46.765 1.627c-0.24 1.049-0.62 2.297-0.725 2.375-0.094 0.071-0.656 1.558-0.959 2.542-0.085 0.276 0.632 0.291 13.453 0.291h13.544l-0.106-1.125c-0.059-0.618-0.107-1.893-0.108-2.833l-1e-3 -1.708h-12.497-12.497l-0.104 0.458"
            fill="#24344c" class="text" />
        <path
            d="m89.417 0.203c-0.838 0.483-0.881 0.607-0.903 2.618l-0.014 1.237-0.375-0.344c-1.261-1.158-3.241-0.105-2.889 1.536 0.04 0.183 0.078 0.39 0.085 0.459 0.019 0.196 0.849 0.874 1.067 0.874 0.108 0 0.195 0.078 0.195 0.173 0 0.094 0.431 0.619 0.958 1.166 1.051 1.092 1.567 3.46 0.626 2.873-0.184-0.115-0.334-0.267-0.334-0.339s-0.192-0.204-0.428-0.294c-0.461-0.175-1.29-0.048-1.151 0.177 0.046 0.076-0.07 0.161-0.258 0.191-0.188 0.029-0.333 0.12-0.322 0.201 0.012 0.082-0.069 0.204-0.179 0.272-0.816 0.504-0.416 1.461 1.338 3.204l1.699 1.688-0.023 2.324c-0.022 2.171-1e-3 2.339 0.32 2.563 0.189 0.133 0.3 0.311 0.247 0.396-0.197 0.319 3.026 0.185 3.279-0.136 0.207-0.265 0.201-0.271-0.063-0.063-0.2 0.156-0.292 0.168-0.292 0.036 0-0.106 0.112-0.235 0.25-0.288 0.206-0.079 0.25-0.512 0.25-2.457v-2.362l1.667-1.65c1.611-1.595 1.666-1.674 1.666-2.387 0-1.49-1.558-2.208-2.776-1.279l-0.557 0.425v-1.03-1.031l1.667-1.639c1.883-1.852 2.152-2.59 1.291-3.55-0.406-0.453-1.625-0.785-1.625-0.442 0 0.107-0.078 0.146-0.174 0.087-0.247-0.153-0.992 0.375-0.992 0.703 0 0.151-0.048 0.226-0.106 0.168s-0.091-0.804-0.074-1.657c0.036-1.81-0.032-2.055-0.666-2.382-0.559-0.29-1.934-0.313-2.404-0.041"
            fill="#74993c" class="chimney" />
    </g>
</svg>
