<svg xmlns="http://www.w3.org/2000/svg" width="172" height="107" viewBox="0 0 172 107"><g transform="translate(-1609 -173)"><path d="M2,2V85H170V2H2M0,0H172V87H0Z" transform="translate(1609 193)" fill="#468ef6"/><g transform="translate(1717.529 172.529)"><rect width="50" height="50" transform="translate(0.471 0.471)" fill="#f7df1e"/><path d="M186.344,302.3a5.128,5.128,0,0,0,4.644,2.859c1.951,0,3.2-.975,3.2-2.322,0-1.614-1.28-2.186-3.428-3.125l-1.177-.505c-3.4-1.447-5.654-3.261-5.654-7.094,0-3.531,2.69-6.219,6.895-6.219a6.959,6.959,0,0,1,6.7,3.77l-3.666,2.354a3.2,3.2,0,0,0-3.03-2.018,2.048,2.048,0,0,0-2.253,2.018c0,1.412.875,1.984,2.895,2.859l1.177.5c4,1.715,6.259,3.464,6.259,7.4,0,4.239-3.33,6.561-7.8,6.561-4.372,0-7.2-2.084-8.579-4.814Zm-16.631.408c.74,1.312,1.412,2.422,3.03,2.422,1.547,0,2.523-.605,2.523-2.958V286.159h4.708v16.072c0,4.875-2.858,7.094-7.03,7.094a7.309,7.309,0,0,1-7.063-4.3Z" transform="translate(-152.318 -262.784)"/></g></g></svg>